<?xml version="1.0" encoding="UTF-8" standalone="no"?>
<svg
   xmlns:dc="http://purl.org/dc/elements/1.1/"
   xmlns:cc="http://creativecommons.org/ns#"
   xmlns:rdf="http://www.w3.org/1999/02/22-rdf-syntax-ns#"
   xmlns:svg="http://www.w3.org/2000/svg"
   xmlns="http://www.w3.org/2000/svg"
   xmlns:sodipodi="http://sodipodi.sourceforge.net/DTD/sodipodi-0.dtd"
   xmlns:inkscape="http://www.inkscape.org/namespaces/inkscape"
   version="1.1"
   viewBox="0 0 928.15747 134.53543"
   stroke-miterlimit="10"
   id="svg89"
   sodipodi:docname="code_mapping.svg"
   inkscape:version="0.92.3 (2405546, 2018-03-11)"
   width="928.15747"
   height="134.53543"
   style="fill:none;stroke:none;stroke-linecap:square;stroke-miterlimit:10">
  <metadata
     id="metadata95">
    <rdf:RDF>
      <cc:Work
         rdf:about="">
        <dc:format>image/svg+xml</dc:format>
        <dc:type
           rdf:resource="http://purl.org/dc/dcmitype/StillImage" />
        <dc:title></dc:title>
      </cc:Work>
    </rdf:RDF>
  </metadata>
  <defs
     id="defs93" />
  <sodipodi:namedview
     pagecolor="#ffffff"
     bordercolor="#666666"
     borderopacity="1"
     objecttolerance="10"
     gridtolerance="10"
     guidetolerance="10"
     inkscape:pageopacity="0"
     inkscape:pageshadow="2"
     inkscape:window-width="1920"
     inkscape:window-height="1021"
     id="namedview91"
     showgrid="false"
     inkscape:zoom="1.353125"
     inkscape:cx="459.27505"
     inkscape:cy="66.78273"
     inkscape:window-x="0"
     inkscape:window-y="27"
     inkscape:window-maximized="1"
     inkscape:current-layer="svg89"
     fit-margin-top="0"
     fit-margin-left="0"
     fit-margin-right="0"
     fit-margin-bottom="0" />
  <clipPath
     id="g2cc271ed0f5_0_16.0">
    <path
       d="M 0,0 H 960 V 540 H 0 Z"
       id="path2"
       inkscape:connector-curvature="0"
       style="clip-rule:nonzero" />
  </clipPath>
  <path
     inkscape:connector-curvature="0"
     style="fill:#d9d2e9;fill-rule:evenodd"
     d="m 1,13.05013 v 0 C 1,6.39504 6.39503,1 13.05013,1 H 183.1546 c 3.19589,0 6.26088,1.26957 8.52072,3.52941 2.25984,2.25984 3.5294,5.32483 3.5294,8.52072 v 108.43519 c 0,6.65509 -5.39503,12.05011 -12.05012,12.05011 H 13.05012 v 0 C 6.39503,133.53543 1,128.14042 1,121.48532 Z"
     id="path19" />
  <path
     inkscape:connector-curvature="0"
     style="fill-rule:evenodd;stroke:#9b59b6;stroke-width:2;stroke-linecap:butt;stroke-linejoin:round"
     d="m 1,13.05013 v 0 C 1,6.39504 6.39503,1 13.05013,1 H 183.1546 c 3.19589,0 6.26088,1.26957 8.52072,3.52941 2.25984,2.25984 3.5294,5.32483 3.5294,8.52072 v 108.43519 c 0,6.65509 -5.39503,12.05011 -12.05012,12.05011 H 13.05012 v 0 C 6.39503,133.53543 1,128.14042 1,121.48532 Z"
     id="path21" />
  <path
     inkscape:connector-curvature="0"
     style="fill:#000000;fill-rule:nonzero"
     d="m 14.93561,26.68773 h 3.07813 q 0.95312,-0.0156 1.78125,-0.23438 0.82812,-0.21875 1.48437,-0.625 0.60938,-0.39062 1.10938,-0.9375 0.5,-0.5625 0.82812,-1.25 0.32813,-0.65625 0.48438,-1.4375 0.17187,-0.78125 0.17187,-1.65625 v -0.96875 q 0,-0.92187 -0.1875,-1.71875 -0.17187,-0.79687 -0.51562,-1.46875 -0.35938,-0.79687 -0.98438,-1.40625 -0.625,-0.60937 -1.4375,-0.98437 -0.59375,-0.26563 -1.28125,-0.40625 -0.6875,-0.15625 -1.45312,-0.17188 h -3.07813 z m 1.71875,-11.875 h 1.35938 q 0.625,0 1.15625,0.14062 0.53125,0.125 0.95312,0.35938 0.60938,0.32812 1.01563,0.84375 0.42187,0.51562 0.65625,1.15625 0.20312,0.48437 0.29687,1.0625 0.0937,0.5625 0.0937,1.1875 v 0.98437 q 0,0.60938 -0.0937,1.17188 -0.0937,0.5625 -0.26562,1.04687 -0.21875,0.59375 -0.57813,1.07813 -0.35937,0.46875 -0.84375,0.79687 -0.46875,0.3125 -1.07812,0.48438 -0.59375,0.17187 -1.3125,0.1875 h -1.35938 z m 14.00808,12.0625 q 1.4375,0 2.42187,-0.57813 0.98438,-0.57812 1.46875,-1.32812 L 33.52181,24.1721 q -0.46875,0.59375 -1.17187,0.96875 -0.6875,0.35938 -1.59375,0.35938 -0.6875,0 -1.25,-0.25 -0.5625,-0.26563 -0.96875,-0.71875 -0.39063,-0.40625 -0.60938,-0.95313 -0.21875,-0.54687 -0.28125,-1.26562 v -0.0781 h 7.03125 v -0.75 q 0,-1.03125 -0.26562,-1.90625 -0.25,-0.89062 -0.78125,-1.54687 -0.53125,-0.64063 -1.32813,-1 -0.79687,-0.375 -1.85937,-0.375 -0.84375,0 -1.65625,0.34375 -0.79688,0.34375 -1.4375,0.98437 -0.625,0.65625 -1.01563,1.60938 -0.375,0.9375 -0.375,2.125 v 0.39062 q 0,1.03125 0.34375,1.90625 0.34375,0.875 0.96875,1.5 0.60938,0.64063 1.48438,1 0.875,0.35938 1.90625,0.35938 z m -0.21875,-8.84375 q 0.65625,0 1.125,0.23437 0.46875,0.23438 0.76562,0.625 0.3125,0.375 0.48438,0.90625 0.17187,0.51563 0.17187,0.98438 v 0.0781 h -5.29687 q 0.0937,-0.6875 0.34375,-1.20312 0.26562,-0.53125 0.625,-0.89063 0.35937,-0.35937 0.8125,-0.54687 0.45312,-0.1875 0.96875,-0.1875 z m 13.61744,6.04687 q 0,0.23438 -0.0937,0.45313 -0.0937,0.20312 -0.26562,0.375 -0.28125,0.28125 -0.78125,0.4375 -0.5,0.15625 -1.17188,0.15625 -0.4375,0 -0.875,-0.0781 -0.4375,-0.0937 -0.79687,-0.3125 -0.35938,-0.21875 -0.60938,-0.57812 -0.23437,-0.35938 -0.26562,-0.875 h -1.6875 q 0,0.625 0.28125,1.21875 0.29687,0.57812 0.84375,1.01562 0.53125,0.4375 1.3125,0.71875 0.78125,0.26563 1.79687,0.26563 0.875,0 1.60938,-0.20313 0.73437,-0.21875 1.26562,-0.60937 0.53125,-0.375 0.8125,-0.90625 0.29688,-0.54688 0.29688,-1.20313 0,-0.60937 -0.26563,-1.0625 -0.25,-0.46875 -0.73437,-0.82812 -0.5,-0.34375 -1.21875,-0.59375 -0.71875,-0.25 -1.625,-0.45313 -0.6875,-0.125 -1.14063,-0.26562 -0.45312,-0.15625 -0.71875,-0.34375 -0.28125,-0.17188 -0.39062,-0.40625 -0.10938,-0.23438 -0.10938,-0.51563 0,-0.28125 0.14063,-0.54687 0.14062,-0.26563 0.40625,-0.46875 0.26562,-0.20313 0.67187,-0.3125 0.40625,-0.125 0.95313,-0.125 0.51562,0 0.92187,0.15625 0.42188,0.14062 0.71875,0.375 0.28125,0.23437 0.4375,0.54687 0.17188,0.29688 0.17188,0.625 h 1.6875 q 0,-0.65625 -0.28125,-1.21875 -0.26563,-0.5625 -0.78125,-0.96875 -0.51563,-0.42187 -1.25,-0.65625 -0.71875,-0.23437 -1.625,-0.23437 -0.85938,0 -1.5625,0.23437 -0.70313,0.21875 -1.21875,0.60938 -0.5,0.39062 -0.78125,0.92187 -0.28125,0.51563 -0.28125,1.10938 0,0.60937 0.26562,1.07812 0.28125,0.45313 0.78125,0.79688 0.48438,0.34375 1.17188,0.59375 0.70312,0.23437 1.5625,0.42187 0.6875,0.125 1.14062,0.29688 0.46875,0.17187 0.75,0.375 0.28125,0.20312 0.40625,0.4375 0.125,0.23437 0.125,0.54687 z m 4.8987,-7.25 v 1.46875 h 3.35937 v 6.9375 h -3.35937 v 1.45313 h 8.26562 V 25.2346 H 54.0067 v -8.40625 z m 3.14062,-2.57812 q 0,0.40625 0.25,0.6875 0.25,0.26562 0.76563,0.26562 0.5,0 0.75,-0.26562 0.25,-0.28125 0.25,-0.6875 0,-0.23438 -0.0781,-0.42188 -0.0625,-0.1875 -0.20313,-0.32812 -0.125,-0.10938 -0.3125,-0.17188 -0.17187,-0.0781 -0.40625,-0.0781 -0.25,0 -0.4375,0.0781 -0.17187,0.0625 -0.29687,0.17188 -0.14063,0.14062 -0.21875,0.34375 -0.0625,0.1875 -0.0625,0.40625 z m 7.49245,7.42187 v 0.20313 q 0,1.04687 0.26563,1.96875 0.28125,0.90625 0.78125,1.59375 0.5,0.67187 1.23437,1.0625 0.73438,0.375 1.625,0.375 0.54688,0 1,-0.125 0.46875,-0.10938 0.85938,-0.3125 0.23437,-0.14063 0.45312,-0.3125 0.21875,-0.1875 0.40625,-0.40625 v 0.84375 q 0,0.64062 -0.1875,1.125 -0.17187,0.5 -0.51562,0.82812 -0.34375,0.32813 -0.82813,0.5 -0.48437,0.17188 -1.07812,0.17188 -0.34375,0 -0.6875,-0.0625 -0.32813,-0.0625 -0.67188,-0.21875 -0.32812,-0.15625 -0.65625,-0.42188 -0.32812,-0.25 -0.64062,-0.625 l -0.875,1 q 0.34375,0.48438 0.8125,0.8125 0.46875,0.32813 0.96875,0.51563 0.5,0.20312 0.98437,0.28125 0.5,0.0937 0.89063,0.0937 0.92187,0 1.6875,-0.28125 0.76562,-0.26563 1.32812,-0.78125 0.54688,-0.53125 0.84375,-1.29688 0.3125,-0.75 0.3125,-1.71875 V 16.8283 h -1.53125 l -0.0781,1.07813 q -0.17187,-0.21875 -0.375,-0.39063 -0.1875,-0.1875 -0.40625,-0.32812 -0.40625,-0.26563 -0.90625,-0.39063 -0.5,-0.14062 -1.09375,-0.14062 -0.90625,0 -1.64062,0.375 -0.73438,0.35937 -1.23438,1.03125 -0.51562,0.65625 -0.78125,1.59375 -0.26562,0.92187 -0.26562,2.01562 z m 1.67188,0.20313 V 21.6721 q 0,-0.71875 0.15625,-1.35937 0.15625,-0.65625 0.48437,-1.15625 0.3125,-0.5 0.8125,-0.78125 0.51563,-0.29688 1.21875,-0.29688 0.42188,0 0.76563,0.10938 0.34375,0.0937 0.625,0.28125 0.29687,0.1875 0.51562,0.45312 0.21875,0.25 0.375,0.5625 v 4.51563 q -0.15625,0.3125 -0.375,0.57812 -0.21875,0.26563 -0.5,0.45313 -0.28125,0.20312 -0.64062,0.3125 -0.34375,0.0937 -0.78125,0.0937 -0.70313,0 -1.20313,-0.28125 -0.5,-0.29688 -0.8125,-0.78125 -0.32812,-0.5 -0.48437,-1.14063 -0.15625,-0.64062 -0.15625,-1.35937 z m 9.82057,4.8125 h 1.6875 v -7.0625 q 0.17187,-0.32813 0.40625,-0.59375 0.23437,-0.26563 0.51562,-0.45313 0.32813,-0.23437 0.71875,-0.35937 0.40625,-0.14063 0.875,-0.14063 0.54688,0 0.95313,0.125 0.42187,0.125 0.70312,0.40625 0.28125,0.29688 0.421879,0.75 0.15625,0.45313 0.15625,1.10938 v 6.21875 h 1.6875 V 20.4221 q 0,-0.96875 -0.25,-1.6875 -0.234375,-0.71875 -0.6875,-1.1875 -0.4375,-0.45312 -1.078129,-0.67187 -0.625,-0.21875 -1.40625,-0.21875 -0.5625,0 -1.07812,0.17187 -0.51563,0.15625 -0.95313,0.4375 -0.29687,0.1875 -0.5625,0.45313 -0.25,0.26562 -0.46875,0.5625 l -0.125,-1.45313 h -1.51562 z m 22.391144,3.79687 h 1.6875 v -4.75 q 0.17187,0.20313 0.375,0.375 0.21875,0.17188 0.45312,0.3125 0.39063,0.21875 0.875,0.32813 0.5,0.125 1.0625,0.125 0.92188,0 1.64063,-0.375 0.734366,-0.39063 1.234366,-1.0625 0.48438,-0.6875 0.73438,-1.59375 0.26562,-0.92188 0.26562,-1.96875 V 21.6721 q 0,-1.09375 -0.26562,-2.01562 -0.25,-0.9375 -0.73438,-1.59375 -0.5,-0.67188 -1.234366,-1.03125 -0.71875,-0.375 -1.67188,-0.375 -0.53125,0 -1,0.10937 -0.46875,0.10938 -0.85937,0.32813 -0.26563,0.14062 -0.51563,0.35937 -0.23437,0.20313 -0.42187,0.45313 l -0.0937,-1.07813 h -1.53125 z m 6.640616,-8.8125 v 0.20313 q 0,0.71875 -0.171866,1.375 -0.15625,0.65625 -0.48438,1.15625 -0.32812,0.5 -0.84375,0.79687 -0.5,0.29688 -1.20312,0.29688 -0.4375,0 -0.79688,-0.10938 -0.35937,-0.10937 -0.64062,-0.3125 -0.26563,-0.15625 -0.46875,-0.39062 -0.1875,-0.23438 -0.34375,-0.51563 v -4.75 q 0.17187,-0.29687 0.39062,-0.54687 0.23438,-0.26563 0.53125,-0.4375 0.26563,-0.17188 0.59375,-0.26563 0.32813,-0.0937 0.71875,-0.0937 0.71875,0 1.21875,0.29688 0.51563,0.28125 0.84375,0.78125 0.32813,0.5 0.48438,1.15625 0.171866,0.64062 0.171866,1.35937 z m 11.03932,5.01563 h 1.75 V 26.5471 q -0.15625,-0.42187 -0.25,-0.96875 -0.0937,-0.54687 -0.0937,-1.04687 v -4.57813 q 0,-0.82812 -0.29687,-1.4375 -0.29688,-0.625 -0.8125,-1.04687 -0.53125,-0.40625 -1.25,-0.60938 -0.71875,-0.20312 -1.5625,-0.20312 -0.92188,0 -1.65625,0.25 -0.71875,0.25 -1.21875,0.65625 -0.5,0.42187 -0.78125,0.95312 -0.26563,0.51563 -0.26563,1.04688 h 1.6875 q 0,-0.3125 0.14063,-0.59375 0.15625,-0.28125 0.4375,-0.5 0.26562,-0.20313 0.65625,-0.32813 0.40625,-0.14062 0.90625,-0.14062 0.54687,0 0.96875,0.14062 0.4375,0.14063 0.73437,0.39063 0.29688,0.25 0.45313,0.60937 0.17187,0.34375 0.17187,0.79688 v 0.78125 h -1.82812 q -1.03125,0 -1.875,0.20312 -0.82813,0.1875 -1.42188,0.59375 -0.59375,0.40625 -0.92187,1.01563 -0.3125,0.60937 -0.3125,1.42187 0,0.625 0.23437,1.15625 0.25,0.53125 0.6875,0.90625 0.4375,0.40625 1.0625,0.64063 0.64063,0.21875 1.4375,0.21875 0.46875,0 0.89063,-0.10938 0.4375,-0.0937 0.82812,-0.26562 0.375,-0.17188 0.6875,-0.39063 0.3125,-0.23437 0.5625,-0.5 0.0312,0.3125 0.0937,0.60938 0.0625,0.28125 0.15625,0.46875 z m -2.98437,-1.28125 q -0.48438,0 -0.85938,-0.125 -0.375,-0.14063 -0.625,-0.35938 -0.23437,-0.21875 -0.35937,-0.53125 -0.125,-0.3125 -0.125,-0.67187 0,-0.39063 0.14062,-0.6875 0.14063,-0.29688 0.40625,-0.51563 0.39063,-0.3125 1.03125,-0.45312 0.65625,-0.15625 1.53125,-0.15625 h 1.5625 v 2 q -0.14062,0.28125 -0.40625,0.5625 -0.25,0.26562 -0.59375,0.46875 -0.34375,0.20312 -0.78125,0.34375 -0.42187,0.125 -0.92187,0.125 z m 14.16432,-8.75 q -1.07813,0 -1.92188,0.46875 -0.84375,0.46875 -1.4375,1.26562 l -0.0156,-0.23437 -0.0781,-1.32813 h -1.59375 v 9.85938 h 1.6875 V 20.3596 q 0.17188,-0.45312 0.42188,-0.8125 0.25,-0.375 0.57812,-0.625 0.375,-0.29687 0.875,-0.4375 0.5,-0.15625 1.125,-0.15625 0.48438,0 0.92188,0.0469 0.45312,0.0469 0.9375,0.15625 l 0.23437,-1.64063 q -0.26562,-0.10937 -0.76562,-0.17187 -0.5,-0.0625 -0.96875,-0.0625 z m 11.2112,10.03125 h 1.75 V 26.5471 q -0.15625,-0.42187 -0.25,-0.96875 -0.0937,-0.54687 -0.0937,-1.04687 v -4.57813 q 0,-0.82812 -0.29688,-1.4375 -0.29687,-0.625 -0.8125,-1.04687 -0.53125,-0.40625 -1.25,-0.60938 -0.71875,-0.20312 -1.5625,-0.20312 -0.92187,0 -1.65625,0.25 -0.71875,0.25 -1.21875,0.65625 -0.5,0.42187 -0.78125,0.95312 -0.26562,0.51563 -0.26562,1.04688 h 1.6875 q 0,-0.3125 0.14062,-0.59375 0.15625,-0.28125 0.4375,-0.5 0.26563,-0.20313 0.65625,-0.32813 0.40625,-0.14062 0.90625,-0.14062 0.54688,0 0.96875,0.14062 0.4375,0.14063 0.73438,0.39063 0.29687,0.25 0.45312,0.60937 0.17188,0.34375 0.17188,0.79688 v 0.78125 h -1.82813 q -1.03125,0 -1.875,0.20312 -0.82812,0.1875 -1.42187,0.59375 -0.59375,0.40625 -0.92188,1.01563 -0.3125,0.60937 -0.3125,1.42187 0,0.625 0.23438,1.15625 0.25,0.53125 0.6875,0.90625 0.4375,0.40625 1.0625,0.64063 0.64062,0.21875 1.4375,0.21875 0.46875,0 0.89062,-0.10938 0.4375,-0.0937 0.82813,-0.26562 0.375,-0.17188 0.6875,-0.39063 0.3125,-0.23437 0.5625,-0.5 0.0312,0.3125 0.0937,0.60938 0.0625,0.28125 0.15625,0.46875 z m -2.98438,-1.28125 q -0.48437,0 -0.85937,-0.125 -0.375,-0.14063 -0.625,-0.35938 -0.23438,-0.21875 -0.35938,-0.53125 -0.125,-0.3125 -0.125,-0.67187 0,-0.39063 0.14063,-0.6875 0.14062,-0.29688 0.40625,-0.51563 0.39062,-0.3125 1.03125,-0.45312 0.65625,-0.15625 1.53125,-0.15625 h 1.5625 v 2 q -0.14063,0.28125 -0.40625,0.5625 -0.25,0.26562 -0.59375,0.46875 -0.34375,0.20312 -0.78125,0.34375 -0.42188,0.125 -0.92188,0.125 z m 8.47682,-8.57813 h -1.51562 v 9.85938 h 1.60937 v -7.84375 q 0.0469,-0.14063 0.125,-0.26563 0.0937,-0.14062 0.21875,-0.23437 0.15625,-0.125 0.375,-0.1875 0.21875,-0.0781 0.53125,-0.0781 0.26563,0 0.46875,0.0781 0.20313,0.0625 0.34375,0.20312 0.15625,0.15625 0.21875,0.39063 0.0625,0.23437 0.0625,0.54687 v 7.39063 h 1.60938 v -7.375 q 0,-0.0625 0,-0.0937 0,-0.0469 0,-0.0937 0.0312,-0.21875 0.10937,-0.40625 0.0781,-0.1875 0.21875,-0.34375 0.15625,-0.125 0.375,-0.20313 0.21875,-0.0937 0.51563,-0.0937 0.28125,0 0.48437,0.0781 0.21875,0.0625 0.375,0.21875 0.14063,0.15625 0.20313,0.39062 0.0781,0.23438 0.0781,0.54688 v 7.375 H 147.04 v -7.35938 q 0,-0.71875 -0.17187,-1.23437 -0.15625,-0.53125 -0.45313,-0.85938 -0.28125,-0.28125 -0.70312,-0.42187 -0.40625,-0.15625 -0.92188,-0.15625 -0.35937,0 -0.6875,0.0937 -0.3125,0.0937 -0.5625,0.25 -0.20312,0.125 -0.375,0.3125 -0.17187,0.1875 -0.29687,0.39062 -0.10938,-0.21875 -0.25,-0.40625 -0.14063,-0.1875 -0.3125,-0.3125 -0.23438,-0.15625 -0.54688,-0.23437 -0.3125,-0.0937 -0.70312,-0.0937 -0.6875,0 -1.1875,0.29687 -0.48438,0.28125 -0.78125,0.8125 z m 16.97683,7.25 q 0,0.23438 -0.0937,0.45313 -0.0937,0.20312 -0.26563,0.375 -0.28125,0.28125 -0.78125,0.4375 -0.5,0.15625 -1.17187,0.15625 -0.4375,0 -0.875,-0.0781 -0.4375,-0.0937 -0.79688,-0.3125 -0.35937,-0.21875 -0.60937,-0.57812 -0.23438,-0.35938 -0.26563,-0.875 h -1.6875 q 0,0.625 0.28125,1.21875 0.29688,0.57812 0.84375,1.01562 0.53125,0.4375 1.3125,0.71875 0.78125,0.26563 1.79688,0.26563 0.875,0 1.60937,-0.20313 0.73438,-0.21875 1.26563,-0.60937 0.53125,-0.375 0.8125,-0.90625 0.29687,-0.54688 0.29687,-1.20313 0,-0.60937 -0.26562,-1.0625 -0.25,-0.46875 -0.73438,-0.82812 -0.5,-0.34375 -1.21875,-0.59375 -0.71875,-0.25 -1.625,-0.45313 -0.6875,-0.125 -1.14062,-0.26562 -0.45313,-0.15625 -0.71875,-0.34375 -0.28125,-0.17188 -0.39063,-0.40625 -0.10937,-0.23438 -0.10937,-0.51563 0,-0.28125 0.14062,-0.54687 0.14063,-0.26563 0.40625,-0.46875 0.26563,-0.20313 0.67188,-0.3125 0.40625,-0.125 0.95312,-0.125 0.51563,0 0.92188,0.15625 0.42187,0.14062 0.71875,0.375 0.28125,0.23437 0.4375,0.54687 0.17187,0.29688 0.17187,0.625 h 1.6875 q 0,-0.65625 -0.28125,-1.21875 -0.26562,-0.5625 -0.78125,-0.96875 -0.51562,-0.42187 -1.25,-0.65625 -0.71875,-0.23437 -1.625,-0.23437 -0.85937,0 -1.5625,0.23437 -0.70312,0.21875 -1.21875,0.60938 -0.5,0.39062 -0.78125,0.92187 -0.28125,0.51563 -0.28125,1.10938 0,0.60937 0.26563,1.07812 0.28125,0.45313 0.78125,0.79688 0.48437,0.34375 1.17187,0.59375 0.70313,0.23437 1.5625,0.42187 0.6875,0.125 1.14063,0.29688 0.46875,0.17187 0.75,0.375 0.28125,0.20312 0.40625,0.4375 0.125,0.23437 0.125,0.54687 z"
     id="path23" />
  <path
     inkscape:connector-curvature="0"
     style="fill:#000000;fill-rule:nonzero"
     d="m 32.70905,38.17461 q 0.85938,0 1.6875,0.45311 0.82813,0.4375 1.28125,1.26562 0.46875,0.82813 0.46875,1.71875 0,1.42188 -1.01562,2.4375 -1,1 -2.42188,1 -1.4375,0 -2.45312,-1 -1,-1.01562 -1,-2.4375 0,-0.90625 0.45312,-1.71875 0.46875,-0.82812 1.29688,-1.26562 0.82812,-0.45311 1.70312,-0.45311 z"
     id="path25" />
  <path
     inkscape:connector-curvature="0"
     style="fill:#000000;fill-rule:nonzero"
     d="m 70.24812,44.62772 -0.0156,-4.17188 h -3.6875 v 1.21875 h 2.3125 l -0.0156,2.5625 q -0.1875,0.25 -0.45313,0.42188 -0.26562,0.15625 -0.5625,0.25 -0.3125,0.0937 -0.64062,0.125 -0.3125,0.0312 -0.60938,0.0156 -0.51562,0 -0.92187,-0.17187 -0.40625,-0.1875 -0.71875,-0.48438 -0.3125,-0.29687 -0.53125,-0.6875 -0.21875,-0.39062 -0.35938,-0.82812 -0.14062,-0.4375 -0.20312,-0.89063 -0.0625,-0.45312 -0.0781,-0.89062 v -1.32813 q 0,-0.42187 0.0469,-0.875 0.0625,-0.45312 0.1875,-0.8906 0.125,-0.4375 0.3125,-0.82813 0.20312,-0.40625 0.5,-0.70312 0.29687,-0.29688 0.6875,-0.46875 0.40625,-0.17188 0.92187,-0.17188 0.54688,0 0.95313,0.17188 0.40625,0.15625 0.70312,0.45312 0.28125,0.29688 0.45313,0.71875 0.1875,0.42188 0.28125,0.90625 h 1.42187 q -0.0625,-0.79687 -0.375,-1.4375 -0.29687,-0.64062 -0.79687,-1.10937 -0.5,-0.45313 -1.17188,-0.6875 -0.67187,-0.25 -1.46875,-0.25 -0.71875,0 -1.29687,0.21875 -0.57813,0.20312 -1.03125,0.5625 -0.46875,0.35937 -0.79688,0.85937 -0.32812,0.5 -0.54687,1.07813 -0.21875,0.57812 -0.32813,1.2031 -0.0937,0.625 -0.10937,1.26563 v 1.3125 q 0.0156,0.64062 0.125,1.28125 0.125,0.625 0.375,1.1875 0.23437,0.57812 0.57812,1.07812 0.35938,0.48438 0.82813,0.84375 0.46875,0.375 1.04687,0.59375 0.59375,0.20313 1.29688,0.20313 0.70312,0.0156 1.32812,-0.15625 0.64063,-0.15625 1.1875,-0.48438 0.3125,-0.1875 0.60938,-0.4375 0.29687,-0.26562 0.5625,-0.57812 z m 5.97656,1.65625 q 1.234375,0 2.078125,-0.5 0.84375,-0.5 1.265629,-1.14063 l -0.890629,-0.6875 q -0.390625,0.51563 -1,0.82813 -0.593755,0.3125 -1.375005,0.3125 -0.57812,0 -1.0625,-0.21875 -0.48437,-0.21875 -0.82812,-0.59375 -0.34375,-0.35938 -0.53125,-0.82813 -0.1875,-0.46875 -0.25,-1.09375 v -0.0469 h 6.046874 v -0.65625 q 0,-0.875 -0.23437,-1.625 -0.218754,-0.76563 -0.671879,-1.32813 -0.453125,-0.56248 -1.140625,-0.87498 -0.67188,-0.3125 -1.59375,-0.3125 -0.71875,0 -1.42188,0.29688 -0.6875,0.29687 -1.21875,0.84373 -0.54687,0.5625 -0.875,1.375 -0.32812,0.8125 -0.32812,1.82812 v 0.32813 q 0,0.89062 0.29687,1.64062 0.29688,0.75 0.82813,1.29688 0.53125,0.54687 1.26562,0.85937 0.75,0.29688 1.64063,0.29688 z m -0.1875,-7.57813 q 0.5625,0 0.95312,0.20313 0.406255,0.20312 0.67188,0.53125 0.265625,0.32812 0.40625,0.78125 0.15625,0.4375 0.15625,0.82812 v 0.0781 H 73.6778 q 0.0937,-0.59375 0.29688,-1.03125 0.21875,-0.45313 0.53125,-0.76563 0.3125,-0.3125 0.70312,-0.46875 0.39063,-0.15625 0.82813,-0.15625 z m 5.648434,3.10938 v 0.17187 q 0,0.92188 0.26563,1.70313 0.26562,0.78125 0.76562,1.35937 0.5,0.57813 1.20313,0.90625 0.71875,0.32813 1.625,0.32813 0.89062,0 1.59375,-0.32813 0.71875,-0.32812 1.21875,-0.90625 0.48437,-0.57812 0.75,-1.35937 0.26562,-0.78125 0.26562,-1.70313 v -0.17187 q 0,-0.90625 -0.26562,-1.6875 -0.26563,-0.79688 -0.75,-1.375 -0.5,-0.57811 -1.21875,-0.90623 -0.71875,-0.32813 -1.60938,-0.32813 -0.89062,0 -1.60937,0.32813 -0.70313,0.32812 -1.20313,0.90623 -0.5,0.57812 -0.76562,1.375 -0.26563,0.78125 -0.26563,1.6875 z m 1.45313,0.17187 v -0.17187 q 0,-0.60938 0.14062,-1.17188 0.15625,-0.57812 0.45313,-1 0.29687,-0.4375 0.73437,-0.6875 0.45313,-0.25 1.0625,-0.25 0.59375,0 1.04688,0.25 0.45312,0.25 0.75,0.6875 0.29687,0.42188 0.45312,1 0.15625,0.5625 0.15625,1.17188 v 0.17187 q 0,0.625 -0.15625,1.20313 -0.14062,0.5625 -0.4375,0.98437 -0.3125,0.4375 -0.76562,0.6875 -0.4375,0.25 -1.03125,0.25 -0.60938,0 -1.0625,-0.25 -0.45313,-0.25 -0.75,-0.6875 -0.29688,-0.42187 -0.45313,-0.98437 -0.14062,-0.57813 -0.14062,-1.20313 z m 9.22656,-4.31248 h -1.29688 v 8.45311 h 1.375 v -6.73437 q 0.0469,-0.125 0.10938,-0.23438 0.0781,-0.10937 0.1875,-0.1875 0.125,-0.10937 0.3125,-0.17187 0.20312,-0.0625 0.45312,-0.0625 0.23438,0 0.40625,0.0625 0.1875,0.0625 0.29688,0.1875 0.125,0.125 0.1875,0.32812 0.0625,0.20313 0.0625,0.46875 v 6.34375 h 1.375 V 39.7996 q 0,-0.0469 0,-0.0781 0,-0.0469 0,-0.0781 0.0156,-0.20313 0.0781,-0.35938 0.0781,-0.15625 0.20313,-0.28125 0.125,-0.125 0.3125,-0.1875 0.1875,-0.0781 0.45312,-0.0781 0.23438,0 0.42188,0.0625 0.1875,0.0625 0.3125,0.1875 0.10937,0.14062 0.17187,0.34375 0.0625,0.20312 0.0625,0.46875 v 6.32812 h 1.375 v -6.3125 q 0,-0.60937 -0.14062,-1.0625 -0.14063,-0.45311 -0.40625,-0.73436 -0.23438,-0.25 -0.59375,-0.375 -0.34375,-0.125 -0.78125,-0.125 -0.32813,0 -0.59375,0.0781 -0.26563,0.0781 -0.48438,0.21875 -0.17187,0.10937 -0.32812,0.26562 -0.14063,0.15625 -0.25,0.34374 -0.0937,-0.20311 -0.21875,-0.35936 -0.10938,-0.15625 -0.26563,-0.26563 -0.20312,-0.14062 -0.46875,-0.20312 -0.26562,-0.0781 -0.60937,-0.0781 -0.59375,0 -1.01563,0.25 -0.40625,0.25 -0.67187,0.70311 z m 12.664056,8.60936 q 1.23438,0 2.07813,-0.5 0.84375,-0.5 1.26562,-1.14062 l -0.89062,-0.6875 q -0.39063,0.51562 -1,0.82812 -0.59375,0.3125 -1.375,0.3125 -0.57813,0 -1.0625,-0.21875 -0.48438,-0.21875 -0.82813,-0.59375 -0.34375,-0.35937 -0.53125,-0.82812 -0.1875,-0.46875 -0.25,-1.09375 v -0.0469 h 6.04688 v -0.65625 q 0,-0.875 -0.23438,-1.625 -0.21875,-0.76562 -0.67187,-1.32812 -0.45313,-0.56249 -1.14063,-0.87499 -0.67187,-0.3125 -1.59375,-0.3125 -0.71875,0 -1.42187,0.29688 -0.6875,0.29687 -1.21875,0.84373 -0.54688,0.5625 -0.875,1.375 -0.32813,0.8125 -0.32813,1.82813 v 0.32812 q 0,0.89063 0.29688,1.64063 0.29687,0.75 0.82812,1.29687 0.53125,0.54688 1.26563,0.85938 0.75,0.29687 1.64062,0.29687 z m -0.1875,-7.57812 q 0.5625,0 0.95313,0.20312 0.40625,0.20313 0.67187,0.53125 0.26563,0.32813 0.40625,0.78125 0.15625,0.4375 0.15625,0.82813 v 0.0781 h -4.54687 q 0.0937,-0.59375 0.29687,-1.03125 0.21875,-0.45312 0.53125,-0.76562 0.3125,-0.3125 0.70313,-0.46875 0.39062,-0.15625 0.82812,-0.15625 z m 9.47656,-3.07811 h -1.45312 v 2.04687 h -2.21875 v 1.10936 h 2.21875 v 4.59375 q 0,0.78125 0.20312,1.34375 0.21875,0.54688 0.57813,0.89063 0.35937,0.34375 0.84375,0.51562 0.48437,0.15625 1.04687,0.15625 0.34375,0 0.67188,-0.0312 0.34375,-0.0312 0.65625,-0.0937 0.29687,-0.0625 0.54687,-0.14062 0.26563,-0.0781 0.45313,-0.1875 l -0.20313,-1.03125 q -0.14062,0.0312 -0.34375,0.0781 -0.20312,0.0469 -0.4375,0.0781 -0.25,0.0469 -0.5,0.0781 -0.25,0.0156 -0.48437,0.0156 -0.3125,0 -0.60938,-0.0781 -0.28125,-0.0781 -0.5,-0.26562 -0.21875,-0.1875 -0.34375,-0.5 -0.125,-0.32813 -0.125,-0.82813 V 38.784 h 3.21875 v -1.10936 h -3.21875 z m 11.72656,1.89062 q -0.92187,0 -1.65625,0.40625 -0.71875,0.39063 -1.23437,1.09374 V 38.7996 l -0.0625,-1.12499 h -1.375 v 8.45311 h 1.45312 v -5.42187 q 0.14063,-0.39063 0.34375,-0.70313 0.21875,-0.32812 0.51563,-0.54687 0.3125,-0.25 0.73437,-0.375 0.4375,-0.125 0.96875,-0.125 0.42188,0 0.79688,0.0469 0.375,0.0312 0.79687,0.125 l 0.20313,-1.40623 q -0.21875,-0.0937 -0.65625,-0.14063 -0.4375,-0.0625 -0.82813,-0.0625 z m 4.74219,12.03124 q 0.5625,0 1,-0.21875 0.4375,-0.20313 0.76563,-0.51563 0.32812,-0.3125 0.5625,-0.6875 0.23437,-0.35937 0.375,-0.6875 l 4.29687,-9.76561 h -1.625 l -2.17187,5.48436 -0.40625,0.98438 -0.375,-1.01563 -2.3125,-5.45311 h -1.625 l 3.64062,8.04686 -0.57812,1.14063 q -0.0781,0.15625 -0.21875,0.39062 -0.125,0.25 -0.3125,0.46875 -0.20313,0.23438 -0.45313,0.39063 -0.23437,0.17187 -0.53125,0.17187 -0.10937,0 -0.3125,-0.0156 -0.1875,-0.0156 -0.375,-0.0312 l -0.23437,1.1875 q 0.14062,0.0312 0.40625,0.0781 0.28125,0.0469 0.48437,0.0469 z"
     id="path27" />
  <path
     inkscape:connector-curvature="0"
     style="fill:#000000;fill-rule:nonzero"
     d="m 32.70905,57.1746 q 0.85938,0 1.6875,0.45312 0.82813,0.4375 1.28125,1.26563 0.46875,0.82812 0.46875,1.71875 0,1.42187 -1.01562,2.4375 -1,1 -2.42188,1 -1.4375,0 -2.45312,-1 -1,-1.01563 -1,-2.4375 0,-0.90625 0.45312,-1.71875 0.46875,-0.82813 1.29688,-1.26563 0.82812,-0.45312 1.70312,-0.45312 z"
     id="path29" />
  <path
     inkscape:connector-curvature="0"
     style="fill:#000000;fill-rule:nonzero"
     d="m 64.48249,53.75272 h -1.79688 v 11.375 h 1.40625 v -4.54688 l -0.10937,-4.57812 1.92187,5.95312 h 0.82813 l 2.10937,-6.125 -0.125,4.75 v 4.54688 h 1.40625 v -11.375 h -1.79687 l -2,5.6875 z m 11.74218,11.53125 q 1.23438,0 2.07813,-0.5 0.84375,-0.5 1.265624,-1.14063 L 78.6778,62.95584 q -0.390625,0.51563 -1,0.82813 -0.59375,0.3125 -1.375,0.3125 -0.57813,0 -1.0625,-0.21875 -0.48438,-0.21875 -0.82813,-0.59375 -0.34375,-0.35938 -0.53125,-0.82813 -0.1875,-0.46875 -0.25,-1.09375 v -0.0469 h 6.046884 v -0.65625 q 0,-0.875 -0.23438,-1.625 -0.218749,-0.76563 -0.671874,-1.32813 -0.453125,-0.5625 -1.140625,-0.875 -0.671875,-0.3125 -1.593755,-0.3125 -0.71875,0 -1.42187,0.29688 -0.6875,0.29687 -1.21875,0.84375 -0.54688,0.5625 -0.875,1.375 -0.32813,0.8125 -0.32813,1.82812 v 0.32813 q 0,0.89062 0.29688,1.64062 0.29687,0.75 0.82812,1.29688 0.53125,0.54687 1.26563,0.85937 0.75,0.29688 1.64062,0.29688 z m -0.1875,-7.57813 q 0.5625,0 0.95313,0.20313 0.40625,0.20312 0.671875,0.53125 0.265625,0.32812 0.40625,0.78125 0.15625,0.4375 0.15625,0.82812 v 0.0781 H 73.6778 q 0.0937,-0.59375 0.29687,-1.03125 0.21875,-0.45313 0.53125,-0.76563 0.3125,-0.3125 0.70313,-0.46875 0.39062,-0.15625 0.82812,-0.15625 z m 9.664064,6.40625 q -0.6875,0 -1.14062,-0.26562 -0.45313,-0.28125 -0.73438,-0.71875 -0.28125,-0.42188 -0.40625,-0.96875 -0.10937,-0.54688 -0.10937,-1.09375 v -0.32813 q 0,-0.54687 0.10937,-1.07812 0.125,-0.54688 0.40625,-0.98438 0.28125,-0.4375 0.73438,-0.70312 0.46875,-0.26563 1.14062,-0.26563 0.4375,0 0.8125,0.15625 0.375,0.14063 0.65625,0.39063 0.26563,0.26562 0.42188,0.60937 0.17187,0.32813 0.17187,0.71875 h 1.375 q 0,-0.64062 -0.26562,-1.20312 -0.25,-0.5625 -0.70313,-0.98438 -0.46875,-0.40625 -1.09375,-0.64062 -0.625,-0.23438 -1.375,-0.23438 -0.96875,0 -1.6875,0.34375 -0.71875,0.34375 -1.1875,0.92188 -0.48437,0.57812 -0.73437,1.34375 -0.23438,0.76562 -0.23438,1.60937 v 0.32813 q 0,0.84375 0.23438,1.60937 0.25,0.75 0.73437,1.32813 0.46875,0.59375 1.1875,0.9375 0.71875,0.34375 1.6875,0.34375 0.67188,0 1.28125,-0.23438 0.625,-0.23437 1.09375,-0.625 0.48438,-0.375 0.76563,-0.89062 0.28125,-0.51563 0.29687,-1.07813 h -1.375 q 0,0.35938 -0.1875,0.65625 -0.17187,0.29688 -0.45312,0.51563 -0.29688,0.23437 -0.67188,0.35937 -0.35937,0.125 -0.75,0.125 z m 7.44531,-6.1875 v -4.79687 h -1.45312 v 12 h 1.45312 v -6.14063 q 0.15625,-0.25 0.34375,-0.45312 0.20313,-0.21875 0.4375,-0.375 0.29688,-0.20313 0.64063,-0.3125 0.35937,-0.10938 0.75,-0.10938 0.48437,0 0.84375,0.14063 0.375,0.125 0.60937,0.40625 0.23438,0.25 0.34375,0.625 0.125,0.375 0.125,0.875 v 5.34375 h 1.4375 v -5.32813 q 0,-0.84375 -0.20312,-1.46875 -0.20313,-0.625 -0.59375,-1.03125 -0.375,-0.40625 -0.92188,-0.59375 -0.54687,-0.1875 -1.20312,-0.1875 -0.51563,0 -0.96875,0.14063 -0.4375,0.14062 -0.8125,0.42187 -0.23438,0.15625 -0.45313,0.375 -0.20312,0.21875 -0.375,0.46875 z m 13.710936,7.20313 h 1.5 v -0.125 q -0.14062,-0.35938 -0.21875,-0.82813 -0.0781,-0.46875 -0.0781,-0.89062 v -3.9375 q 0,-0.70313 -0.26563,-1.23438 -0.25,-0.53125 -0.6875,-0.89062 -0.45312,-0.35938 -1.07812,-0.53125 -0.60938,-0.17188 -1.32813,-0.17188 -0.79687,0 -1.42187,0.21875 -0.60938,0.21875 -1.04688,0.5625 -0.4375,0.35938 -0.67187,0.8125 -0.21875,0.4375 -0.23438,0.90625 h 1.45313 q 0,-0.26562 0.125,-0.51562 0.14062,-0.25 0.375,-0.42188 0.23437,-0.1875 0.5625,-0.29687 0.34375,-0.10938 0.78125,-0.10938 0.45312,0 0.82812,0.125 0.375,0.10938 0.625,0.32813 0.26563,0.21875 0.40625,0.53125 0.14063,0.29687 0.14063,0.67187 v 0.67188 H 105.045 q -0.89062,0 -1.60937,0.17187 -0.70313,0.17188 -1.21875,0.51563 -0.5,0.34375 -0.78125,0.875 -0.28125,0.51562 -0.28125,1.21875 0,0.53125 0.20312,0.98437 0.21875,0.45313 0.59375,0.78125 0.375,0.34375 0.92188,0.54688 0.54687,0.1875 1.21875,0.1875 0.40625,0 0.76562,-0.0937 0.375,-0.0781 0.70313,-0.23438 0.32812,-0.14062 0.59375,-0.32812 0.26562,-0.20313 0.48437,-0.42188 0.0312,0.26563 0.0781,0.51563 0.0469,0.23437 0.14062,0.40625 z m -2.5625,-1.10938 q -0.42187,0 -0.75,-0.10937 -0.3125,-0.10938 -0.51562,-0.29688 -0.21875,-0.1875 -0.32813,-0.45312 -0.0937,-0.26563 -0.0937,-0.57813 0,-0.32812 0.10938,-0.57812 0.125,-0.26563 0.35937,-0.45313 0.32813,-0.26562 0.89063,-0.39062 0.5625,-0.14063 1.3125,-0.14063 h 1.34375 v 1.71875 q -0.125,0.25 -0.34375,0.48438 -0.21875,0.21875 -0.51563,0.40625 -0.3125,0.17187 -0.6875,0.28125 -0.35937,0.10937 -0.78125,0.10937 z m 6.60156,1.10938 h 1.45313 v -6.0625 q 0.14062,-0.28125 0.34375,-0.5 0.20312,-0.23438 0.4375,-0.40625 0.28125,-0.1875 0.625,-0.29688 0.34375,-0.125 0.75,-0.125 0.45312,0 0.8125,0.10938 0.35937,0.10937 0.60937,0.35937 0.23438,0.23438 0.35938,0.625 0.125,0.39063 0.125,0.95313 v 5.34375 h 1.45312 v -5.375 q 0,-0.84375 -0.21875,-1.45313 -0.20312,-0.60937 -0.57812,-1.01562 -0.39063,-0.39063 -0.9375,-0.57813 -0.53125,-0.1875 -1.20313,-0.1875 -0.48437,0 -0.9375,0.14063 -0.4375,0.14062 -0.8125,0.39062 -0.25,0.15625 -0.46875,0.39063 -0.21875,0.21875 -0.40625,0.48437 l -0.10937,-1.25 h -1.29688 z m 9.83594,-8.45313 v 1.25 h 2.875 v 5.95313 h -2.875 v 1.25 h 7.07813 v -1.25 h -2.76563 v -7.20313 z m 2.6875,-2.21875 q 0,0.34375 0.20313,0.57813 0.21875,0.23437 0.65625,0.23437 0.4375,0 0.65625,-0.23437 0.21875,-0.23438 0.21875,-0.57813 0,-0.20312 -0.0625,-0.35937 -0.0625,-0.17188 -0.1875,-0.28125 -0.10938,-0.0937 -0.26563,-0.15625 -0.15625,-0.0625 -0.35937,-0.0625 -0.20313,0 -0.35938,0.0625 -0.15625,0.0625 -0.26562,0.15625 -0.125,0.125 -0.1875,0.29687 -0.0469,0.15625 -0.0469,0.34375 z m 10.28906,9.65625 q -0.6875,0 -1.14062,-0.26562 -0.45313,-0.28125 -0.73438,-0.71875 -0.28125,-0.42188 -0.40625,-0.96875 -0.10937,-0.54688 -0.10937,-1.09375 v -0.32813 q 0,-0.54687 0.10937,-1.07812 0.125,-0.54688 0.40625,-0.98438 0.28125,-0.4375 0.73438,-0.70312 0.46875,-0.26563 1.14062,-0.26563 0.4375,0 0.8125,0.15625 0.375,0.14063 0.65625,0.39063 0.26563,0.26562 0.42188,0.60937 0.17187,0.32813 0.17187,0.71875 h 1.375 q 0,-0.64062 -0.26562,-1.20312 -0.25,-0.5625 -0.70313,-0.98438 -0.46875,-0.40625 -1.09375,-0.64062 -0.625,-0.23438 -1.375,-0.23438 -0.96875,0 -1.6875,0.34375 -0.71875,0.34375 -1.1875,0.92188 -0.48437,0.57812 -0.73437,1.34375 -0.23438,0.76562 -0.23438,1.60937 v 0.32813 q 0,0.84375 0.23438,1.60937 0.25,0.75 0.73437,1.32813 0.46875,0.59375 1.1875,0.9375 0.71875,0.34375 1.6875,0.34375 0.67188,0 1.28125,-0.23438 0.625,-0.23437 1.09375,-0.625 0.48438,-0.375 0.76563,-0.89062 0.28125,-0.51563 0.29687,-1.07813 h -1.375 q 0,0.35938 -0.1875,0.65625 -0.17187,0.29688 -0.45312,0.51563 -0.29688,0.23437 -0.67188,0.35937 -0.35937,0.125 -0.75,0.125 z m 11.55469,1.01563 h 1.5 v -0.125 q -0.14062,-0.35938 -0.21875,-0.82813 -0.0781,-0.46875 -0.0781,-0.89062 v -3.9375 q 0,-0.70313 -0.26563,-1.23438 -0.25,-0.53125 -0.6875,-0.89062 -0.45312,-0.35938 -1.07812,-0.53125 -0.60938,-0.17188 -1.32813,-0.17188 -0.79687,0 -1.42187,0.21875 -0.60938,0.21875 -1.04688,0.5625 -0.4375,0.35938 -0.67187,0.8125 -0.21875,0.4375 -0.23438,0.90625 h 1.45313 q 0,-0.26562 0.125,-0.51562 0.14062,-0.25 0.375,-0.42188 0.23437,-0.1875 0.5625,-0.29687 0.34375,-0.10938 0.78125,-0.10938 0.45312,0 0.82812,0.125 0.375,0.10938 0.625,0.32813 0.26563,0.21875 0.40625,0.53125 0.14063,0.29687 0.14063,0.67187 v 0.67188 h -1.57813 q -0.89062,0 -1.60937,0.17187 -0.70313,0.17188 -1.21875,0.51563 -0.5,0.34375 -0.78125,0.875 -0.28125,0.51562 -0.28125,1.21875 0,0.53125 0.20312,0.98437 0.21875,0.45313 0.59375,0.78125 0.375,0.34375 0.92188,0.54688 0.54687,0.1875 1.21875,0.1875 0.40625,0 0.76562,-0.0937 0.375,-0.0781 0.70313,-0.23438 0.32812,-0.14062 0.59375,-0.32812 0.26562,-0.20313 0.48437,-0.42188 0.0312,0.26563 0.0781,0.51563 0.0469,0.23437 0.14062,0.40625 z m -2.5625,-1.10938 q -0.42187,0 -0.75,-0.10937 -0.3125,-0.10938 -0.51562,-0.29688 -0.21875,-0.1875 -0.32813,-0.45312 -0.0937,-0.26563 -0.0937,-0.57813 0,-0.32812 0.10938,-0.57812 0.125,-0.26563 0.35937,-0.45313 0.32813,-0.26562 0.89063,-0.39062 0.5625,-0.14063 1.3125,-0.14063 h 1.34375 v 1.71875 q -0.125,0.25 -0.34375,0.48438 -0.21875,0.21875 -0.51563,0.40625 -0.3125,0.17187 -0.6875,0.28125 -0.35937,0.10937 -0.78125,0.10937 z m 6.83594,-10.89062 v 1.25 h 2.875 v 9.5 h -2.875 v 1.25 h 7.07812 v -1.25 h -2.76562 v -10.75 z"
     id="path31" />
  <path
     inkscape:connector-curvature="0"
     style="fill:#000000;fill-rule:nonzero"
     d="m 32.70905,76.1746 q 0.85938,0 1.6875,0.45312 0.82813,0.4375 1.28125,1.26563 0.46875,0.82812 0.46875,1.71875 0,1.42187 -1.01562,2.4375 -1,1 -2.42188,1 -1.4375,0 -2.45312,-1 -1,-1.01563 -1,-2.4375 0,-0.90625 0.45312,-1.71875 0.46875,-0.82813 1.29688,-1.26563 0.82812,-0.45312 1.70312,-0.45312 z"
     id="path33" />
  <path
     inkscape:connector-curvature="0"
     style="fill:#000000;fill-rule:nonzero"
     d="m 62.74812,84.12772 h 2.625 q 0.82812,-0.0156 1.53125,-0.20313 0.70312,-0.1875 1.26562,-0.53125 0.53125,-0.34375 0.95313,-0.8125 0.4375,-0.48437 0.71875,-1.0625 0.28125,-0.5625 0.42187,-1.23437 0.14063,-0.67188 0.14063,-1.42188 v -0.84375 q 0,-0.78125 -0.15625,-1.46875 -0.15625,-0.6875 -0.4375,-1.26562 -0.32813,-0.67188 -0.85938,-1.1875 -0.53125,-0.53125 -1.23437,-0.84375 -0.5,-0.23438 -1.09375,-0.35938 -0.57813,-0.14062 -1.25,-0.14062 h -2.625 z m 1.46875,-10.1875 h 1.15625 q 0.54687,0 1,0.125 0.45312,0.10937 0.8125,0.3125 0.51562,0.26562 0.875,0.71875 0.35937,0.4375 0.5625,0.98437 0.17187,0.42188 0.25,0.90625 0.0781,0.48438 0.0937,1.01563 v 0.85937 q -0.0156,0.51563 -0.0937,1 -0.0781,0.48438 -0.23438,0.89063 -0.17187,0.51562 -0.48437,0.92187 -0.3125,0.40625 -0.73438,0.6875 -0.39062,0.28125 -0.90625,0.4375 -0.51562,0.14063 -1.14062,0.14063 h -1.15625 z m 13.82031,1.57812 q -0.92188,0 -1.65625,0.40625 -0.71875,0.39063 -1.23438,1.09375 v -0.21875 l -0.0625,-1.125 h -1.375 v 8.45313 h 1.45313 v -5.42188 q 0.14062,-0.39062 0.34375,-0.70312 0.21875,-0.32813 0.51562,-0.54688 0.3125,-0.25 0.73438,-0.375 0.4375,-0.125 0.96875,-0.125 0.421875,0 0.796875,0.0469 0.375,0.0312 0.796879,0.125 l 0.20312,-1.40625 q -0.21875,-0.0937 -0.656249,-0.14063 -0.4375,-0.0625 -0.828125,-0.0625 z m 4.289064,0.15625 v 1.25 h 2.875 v 5.95313 h -2.875 v 1.25 h 7.07812 v -1.25 h -2.76562 v -7.20313 z m 2.6875,-2.21875 q 0,0.34375 0.20312,0.57813 0.21875,0.23437 0.65625,0.23437 0.4375,0 0.65625,-0.23437 0.21875,-0.23438 0.21875,-0.57813 0,-0.20312 -0.0625,-0.35937 -0.0625,-0.17188 -0.1875,-0.28125 -0.10937,-0.0937 -0.26562,-0.15625 -0.15625,-0.0625 -0.35938,-0.0625 -0.20312,0 -0.35937,0.0625 -0.15625,0.0625 -0.26563,0.15625 -0.125,0.125 -0.1875,0.29687 -0.0469,0.15625 -0.0469,0.34375 z m 9.57031,10.67188 h 1.09375 l 3.45312,-8.45313 h -1.48437 l -2.35938,6.375 -0.14062,0.51563 -0.14063,-0.51563 -2.42187,-6.375 h -1.48438 z m 6.945306,-8.45313 v 1.25 h 2.875 v 5.95313 h -2.875 v 1.25 h 7.07813 v -1.25 h -2.76563 v -7.20313 z m 2.6875,-2.21875 q 0,0.34375 0.20313,0.57813 0.21875,0.23437 0.65625,0.23437 0.4375,0 0.65625,-0.23437 0.21875,-0.23438 0.21875,-0.57813 0,-0.20312 -0.0625,-0.35937 -0.0625,-0.17188 -0.1875,-0.28125 -0.10938,-0.0937 -0.26563,-0.15625 -0.15625,-0.0625 -0.35937,-0.0625 -0.20313,0 -0.35938,0.0625 -0.15625,0.0625 -0.26562,0.15625 -0.125,0.125 -0.1875,0.29687 -0.0469,0.15625 -0.0469,0.34375 z m 6.67969,10.67188 h 1.45312 v -6.0625 q 0.14063,-0.28125 0.34375,-0.5 0.20313,-0.23438 0.4375,-0.40625 0.28125,-0.1875 0.625,-0.29688 0.34375,-0.125 0.75,-0.125 0.45313,0 0.8125,0.10938 0.35938,0.10937 0.60938,0.35937 0.23437,0.23438 0.35937,0.625 0.125,0.39063 0.125,0.95313 v 5.34375 h 1.45313 v -5.375 q 0,-0.84375 -0.21875,-1.45313 -0.20313,-0.60937 -0.57813,-1.01562 -0.39062,-0.39063 -0.9375,-0.57813 -0.53125,-0.1875 -1.20312,-0.1875 -0.48438,0 -0.9375,0.14063 -0.4375,0.14062 -0.8125,0.39062 -0.25,0.15625 -0.46875,0.39063 -0.21875,0.21875 -0.40625,0.48437 l -0.10938,-1.25 h -1.29687 z m 9.33593,-4.29688 v 0.15625 q 0,0.90625 0.23438,1.70313 0.23437,0.78125 0.67187,1.35937 0.4375,0.57813 1.0625,0.90625 0.625,0.32813 1.39063,0.32813 0.46875,0 0.85937,-0.10938 0.40625,-0.0937 0.73438,-0.26562 0.20312,-0.125 0.39062,-0.28125 0.1875,-0.15625 0.34375,-0.34375 v 0.73437 q 0,0.54688 -0.15625,0.96875 -0.15625,0.42188 -0.4375,0.70313 -0.29687,0.29687 -0.71875,0.4375 -0.40625,0.15625 -0.92187,0.15625 -0.29688,0 -0.59375,-0.0625 -0.28125,-0.0625 -0.5625,-0.1875 -0.29688,-0.14063 -0.57813,-0.35938 -0.28125,-0.21875 -0.54687,-0.54687 l -0.75,0.875 q 0.29687,0.40625 0.6875,0.6875 0.40625,0.28125 0.84375,0.45312 0.4375,0.17188 0.85937,0.23438 0.42188,0.0781 0.75,0.0781 0.79688,0 1.45313,-0.23437 0.65625,-0.23438 1.125,-0.6875 0.46875,-0.45313 0.73437,-1.10938 0.26563,-0.64062 0.26563,-1.48437 v -8.26563 h -1.3125 l -0.0781,0.92188 q -0.14062,-0.1875 -0.3125,-0.34375 -0.17187,-0.15625 -0.35937,-0.28125 -0.34375,-0.21875 -0.76563,-0.32813 -0.42187,-0.125 -0.9375,-0.125 -0.78125,0 -1.40625,0.32813 -0.625,0.3125 -1.0625,0.875 -0.4375,0.57812 -0.67187,1.375 -0.23438,0.78125 -0.23438,1.73437 z m 1.45313,0.15625 v -0.15625 q 0,-0.625 0.125,-1.17187 0.125,-0.5625 0.40625,-1 0.28125,-0.42188 0.70312,-0.67188 0.4375,-0.25 1.04688,-0.25 0.35937,0 0.65625,0.0937 0.29687,0.0937 0.54687,0.25 0.23438,0.15625 0.42188,0.375 0.1875,0.21875 0.32812,0.48438 v 3.875 q -0.14062,0.28125 -0.32812,0.51562 -0.1875,0.21875 -0.42188,0.375 -0.23437,0.17188 -0.54687,0.26563 -0.29688,0.0781 -0.67188,0.0781 -0.59375,0 -1.03125,-0.23437 -0.42187,-0.25 -0.70312,-0.67188 -0.28125,-0.42187 -0.40625,-0.96875 -0.125,-0.5625 -0.125,-1.1875 z"
     id="path35" />
  <path
     inkscape:connector-curvature="0"
     style="fill:#000000;fill-rule:nonzero"
     d="m 32.70905,95.1746 q 0.85938,0 1.6875,0.45312 0.82813,0.4375 1.28125,1.26563 0.46875,0.82812 0.46875,1.71875 0,1.42186 -1.01562,2.43749 -1,1 -2.42188,1 -1.4375,0 -2.45312,-1 -1,-1.01563 -1,-2.43749 0,-0.90625 0.45312,-1.71875 0.46875,-0.82813 1.29688,-1.26563 0.82812,-0.45312 1.70312,-0.45312 z"
     id="path37" />
  <path
     inkscape:connector-curvature="0"
     style="fill:#000000;fill-rule:nonzero"
     d="M 64.52937,101.89335 V 91.75273 h -1.45313 v 11.37499 h 7.01563 v -1.23437 z m 7.55468,-3.07812 v 0.17188 q 0,0.92187 0.26563,1.70311 0.26562,0.78125 0.76562,1.35938 0.5,0.57812 1.20313,0.90625 0.71875,0.32812 1.625,0.32812 0.89062,0 1.59375,-0.32812 0.71875,-0.32813 1.21875,-0.90625 0.484375,-0.57813 0.750004,-1.35938 0.26562,-0.78124 0.26562,-1.70311 v -0.17188 q 0,-0.90625 -0.26562,-1.6875 -0.265629,-0.79687 -0.750004,-1.375 -0.5,-0.57812 -1.21875,-0.90625 -0.71875,-0.32812 -1.60938,-0.32812 -0.89062,0 -1.60937,0.32812 -0.70313,0.32813 -1.20313,0.90625 -0.5,0.57813 -0.76562,1.375 -0.26563,0.78125 -0.26563,1.6875 z m 1.45313,0.17188 v -0.17188 q 0,-0.60937 0.14062,-1.17187 0.15625,-0.57813 0.45313,-1 0.29687,-0.4375 0.73437,-0.6875 0.45313,-0.25 1.0625,-0.25 0.59375,0 1.04688,0.25 0.453125,0.25 0.75,0.6875 0.296875,0.42187 0.453125,1 0.15625,0.5625 0.15625,1.17187 v 0.17188 q 0,0.625 -0.15625,1.20311 -0.140625,0.5625 -0.4375,0.98438 -0.3125,0.4375 -0.765625,0.6875 -0.4375,0.25 -1.03125,0.25 -0.60938,0 -1.0625,-0.25 -0.45313,-0.25 -0.75,-0.6875 -0.29688,-0.42188 -0.45313,-0.98438 -0.14062,-0.57811 -0.14062,-1.20311 z m 14.117184,4.14061 h 1.5 v -0.125 q -0.14062,-0.35937 -0.21875,-0.82812 -0.0781,-0.46875 -0.0781,-0.89063 v -3.93749 q 0,-0.70312 -0.26563,-1.23437 -0.25,-0.53125 -0.6875,-0.89063 -0.45312,-0.35937 -1.07812,-0.53125 -0.60938,-0.17187 -1.32813,-0.17187 -0.79687,0 -1.42187,0.21875 -0.60938,0.21875 -1.04688,0.5625 -0.4375,0.35937 -0.67187,0.8125 -0.21875,0.4375 -0.23438,0.90625 h 1.45313 q 0,-0.26563 0.125,-0.51563 0.14062,-0.25 0.375,-0.42187 0.23437,-0.1875 0.5625,-0.29688 0.34375,-0.10937 0.78125,-0.10937 0.45312,0 0.82812,0.125 0.375,0.10937 0.625,0.32812 0.26563,0.21875 0.40625,0.53125 0.14063,0.29688 0.14063,0.67188 v 0.67187 h -1.57813 q -0.89062,0 -1.60937,0.17188 -0.70313,0.17187 -1.21875,0.51562 -0.5,0.34375 -0.78125,0.875 -0.28125,0.51562 -0.28125,1.21874 0,0.53125 0.20312,0.98438 0.21875,0.45312 0.59375,0.78125 0.375,0.34375 0.92188,0.54687 0.54687,0.1875 1.21875,0.1875 0.40625,0 0.76562,-0.0937 0.375,-0.0781 0.70313,-0.23437 0.32812,-0.14063 0.59375,-0.32813 0.26562,-0.20312 0.48437,-0.42187 0.0312,0.26562 0.0781,0.51562 0.0469,0.23438 0.14062,0.40625 z m -2.5625,-1.10937 q -0.42187,0 -0.75,-0.10938 -0.3125,-0.10937 -0.51562,-0.29687 -0.21875,-0.1875 -0.32813,-0.45313 -0.0937,-0.26562 -0.0937,-0.57812 0,-0.32813 0.10938,-0.57813 0.125,-0.26561 0.35937,-0.45311 0.32813,-0.26563 0.89063,-0.39063 0.5625,-0.14062 1.3125,-0.14062 h 1.34375 v 1.71874 q -0.125,0.25 -0.34375,0.48437 -0.21875,0.21875 -0.51563,0.40625 -0.3125,0.17188 -0.6875,0.28125 -0.35937,0.10938 -0.78125,0.10938 z m 6.33594,-3.18749 v 0.15625 q 0,0.90625 0.23437,1.70311 0.25,0.78125 0.6875,1.35938 0.4375,0.57812 1.04688,0.90625 0.625,0.32812 1.39062,0.32812 0.78125,0 1.35938,-0.26562 0.59375,-0.26563 1.01562,-0.78125 l 0.0625,0.89062 h 1.32813 V 91.12773 h -1.4375 v 4.375 q -0.42188,-0.48437 -0.98438,-0.73437 -0.5625,-0.25 -1.32812,-0.25 -0.76563,0 -1.39063,0.32812 -0.625,0.3125 -1.0625,0.875 -0.45312,0.57813 -0.6875,1.375 -0.23437,0.78125 -0.23437,1.73438 z m 1.4375,0.15625 v -0.15625 q 0,-0.625 0.125,-1.17188 0.14062,-0.5625 0.42187,-1 0.28125,-0.42187 0.70313,-0.67187 0.4375,-0.25 1.04687,-0.25 0.71875,0 1.1875,0.34375 0.48438,0.32812 0.76563,0.84375 v 3.92186 q -0.28125,0.54688 -0.76563,0.875 -0.46875,0.32813 -1.20312,0.32813 -0.59375,0 -1.03125,-0.23438 -0.42188,-0.25 -0.70313,-0.67187 -0.28125,-0.42188 -0.42187,-0.96875 -0.125,-0.56249 -0.125,-1.18749 z m 8.664056,-4.3125 v 1.25 h 2.875 v 5.95311 h -2.875 v 1.25 h 7.07813 v -1.25 h -2.76563 v -7.20311 z m 2.6875,-2.21875 q 0,0.34375 0.20313,0.57812 0.21875,0.23438 0.65625,0.23438 0.4375,0 0.65625,-0.23438 0.21875,-0.23437 0.21875,-0.57812 0,-0.20313 -0.0625,-0.35938 -0.0625,-0.17187 -0.1875,-0.28125 -0.10938,-0.0937 -0.26563,-0.15625 -0.15625,-0.0625 -0.35937,-0.0625 -0.20313,0 -0.35938,0.0625 -0.15625,0.0625 -0.26562,0.15625 -0.125,0.125 -0.1875,0.29688 -0.0469,0.15625 -0.0469,0.34375 z m 6.67969,10.67186 h 1.45312 v -6.06249 q 0.14063,-0.28125 0.34375,-0.5 0.20313,-0.23437 0.4375,-0.40625 0.28125,-0.1875 0.625,-0.29687 0.34375,-0.125 0.75,-0.125 0.45313,0 0.8125,0.10937 0.35938,0.10938 0.60938,0.35938 0.23437,0.23437 0.35937,0.625 0.125,0.39062 0.125,0.95312 v 5.34374 h 1.45313 v -5.37499 q 0,-0.84375 -0.21875,-1.45312 -0.20313,-0.60938 -0.57813,-1.01563 -0.39062,-0.39062 -0.9375,-0.57812 -0.53125,-0.1875 -1.20312,-0.1875 -0.48438,0 -0.9375,0.14062 -0.4375,0.14063 -0.8125,0.39063 -0.25,0.15625 -0.46875,0.39062 -0.21875,0.21875 -0.40625,0.48438 l -0.10938,-1.25 h -1.29687 z m 9.33593,-4.29686 v 0.15625 q 0,0.90625 0.23438,1.70311 0.23437,0.78125 0.67187,1.35938 0.4375,0.57812 1.0625,0.90625 0.625,0.32812 1.39063,0.32812 0.46875,0 0.85937,-0.10937 0.40625,-0.0937 0.73438,-0.26563 0.20312,-0.125 0.39062,-0.28125 0.1875,-0.15625 0.34375,-0.34375 v 0.73438 q 0,0.54687 -0.15625,0.96875 -0.15625,0.42187 -0.4375,0.70312 -0.29687,0.29688 -0.71875,0.4375 -0.40625,0.15625 -0.92187,0.15625 -0.29688,0 -0.59375,-0.0625 -0.28125,-0.0625 -0.5625,-0.1875 -0.29688,-0.14062 -0.57813,-0.35937 -0.28125,-0.21875 -0.54687,-0.54688 l -0.75,0.875 q 0.29687,0.40625 0.6875,0.6875 0.40625,0.28125 0.84375,0.45313 0.4375,0.17187 0.85937,0.23437 0.42188,0.0781 0.75,0.0781 0.79688,0 1.45313,-0.23438 0.65625,-0.23437 1.125,-0.6875 0.46875,-0.45312 0.73437,-1.10937 0.26563,-0.64063 0.26563,-1.48438 v -8.26562 h -1.3125 l -0.0781,0.92187 q -0.14062,-0.1875 -0.3125,-0.34375 -0.17187,-0.15625 -0.35937,-0.28125 -0.34375,-0.21875 -0.76563,-0.32812 -0.42187,-0.125 -0.9375,-0.125 -0.78125,0 -1.40625,0.32812 -0.625,0.3125 -1.0625,0.875 -0.4375,0.57813 -0.67187,1.375 -0.23438,0.78125 -0.23438,1.73438 z m 1.45313,0.15625 v -0.15625 q 0,-0.625 0.125,-1.17188 0.125,-0.5625 0.40625,-1 0.28125,-0.42187 0.70312,-0.67187 0.4375,-0.25 1.04688,-0.25 0.35937,0 0.65625,0.0937 0.29687,0.0937 0.54687,0.25 0.23438,0.15625 0.42188,0.375 0.1875,0.21875 0.32812,0.48437 v 3.875 q -0.14062,0.28125 -0.32812,0.51562 -0.1875,0.21875 -0.42188,0.375 -0.23437,0.17188 -0.54687,0.26563 -0.29688,0.0781 -0.67188,0.0781 -0.59375,0 -1.03125,-0.23438 -0.42187,-0.25 -0.70312,-0.67187 -0.28125,-0.42188 -0.40625,-0.96875 -0.125,-0.5625 -0.125,-1.1875 z"
     id="path39" />
  <path
     inkscape:connector-curvature="0"
     style="fill:#000000;fill-rule:nonzero"
     d="m 32.70905,114.17459 q 0.85938,0 1.6875,0.45312 0.82813,0.4375 1.28125,1.26563 0.46875,0.82812 0.46875,1.71875 0,1.42187 -1.01562,2.4375 -1,1 -2.42188,1 -1.4375,0 -2.45312,-1 -1,-1.01563 -1,-2.4375 0,-0.90625 0.45312,-1.71875 0.46875,-0.82813 1.29688,-1.26563 0.82812,-0.45312 1.70312,-0.45312 z"
     id="path41" />
  <path
     inkscape:connector-curvature="0"
     style="fill:#000000;fill-rule:nonzero"
     d="m 65.40437,121.19021 q 0,0.45312 0.28125,0.78125 0.29687,0.3125 0.85937,0.3125 0.54688,0 0.84375,-0.3125 0.29688,-0.32813 0.29688,-0.78125 0,-0.46875 -0.29688,-0.79688 -0.28125,-0.32812 -0.84375,-0.32812 -0.57812,0 -0.85937,0.32812 -0.28125,0.32813 -0.28125,0.79688 z m 9.60156,0 q 0,0.45312 0.28125,0.78125 0.29687,0.3125 0.85937,0.3125 0.54688,0 0.84375,-0.3125 0.29688,-0.32813 0.29688,-0.78125 0,-0.46875 -0.29688,-0.79688 -0.28125,-0.32812 -0.84375,-0.32812 -0.57812,0 -0.85937,0.32812 -0.28125,0.32813 -0.28125,0.79688 z m 9.601564,0 q 0,0.45312 0.28125,0.78125 0.29687,0.3125 0.85937,0.3125 0.54688,0 0.84375,-0.3125 0.29688,-0.32813 0.29688,-0.78125 0,-0.46875 -0.29688,-0.79688 -0.28125,-0.32812 -0.84375,-0.32812 -0.57812,0 -0.85937,0.32812 -0.28125,0.32813 -0.28125,0.79688 z"
     id="path43" />
  <path
     inkscape:connector-curvature="0"
     style="fill:#c9daf8;fill-rule:evenodd"
     d="m 234.07086,50.36366 v 0 c 0,-2.07498 1.6821,-3.75708 3.75708,-3.75708 h 172.23389 c 0.99643,0 1.95206,0.39584 2.65665,1.10043 0.70459,0.70459 1.10043,1.66022 1.10043,2.65665 v 33.80869 c 0,2.07498 -1.6821,3.75708 -3.75708,3.75708 H 237.82794 c -2.07498,0 -3.75708,-1.6821 -3.75708,-3.75708 z"
     id="path45" />
  <path
     inkscape:connector-curvature="0"
     style="fill-rule:evenodd;stroke:#4a86e8;stroke-width:2;stroke-linecap:butt;stroke-linejoin:round"
     d="m 234.07086,50.36366 v 0 c 0,-2.07498 1.6821,-3.75708 3.75708,-3.75708 h 172.23389 c 0.99643,0 1.95206,0.39584 2.65665,1.10043 0.70459,0.70459 1.10043,1.66022 1.10043,2.65665 v 33.80869 c 0,2.07498 -1.6821,3.75708 -3.75708,3.75708 H 237.82794 c -2.07498,0 -3.75708,-1.6821 -3.75708,-3.75708 z"
     id="path47" />
  <path
     inkscape:connector-curvature="0"
     style="fill:#000000;fill-rule:nonzero"
     d="m 255.79462,68.32862 v -1.51563 q -0.0156,-0.71875 -0.14062,-1.4375 -0.10938,-0.73437 -0.34375,-1.40625 -0.25,-0.67187 -0.625,-1.25 -0.35938,-0.59375 -0.85938,-1.03125 -0.51562,-0.4375 -1.1875,-0.6875 -0.65625,-0.26562 -1.48437,-0.26562 -0.8125,0 -1.48438,0.26562 -0.65625,0.25 -1.15625,0.6875 -0.51562,0.4375 -0.89062,1.03125 -0.35938,0.57813 -0.59375,1.25 -0.25,0.6875 -0.375,1.40625 -0.10938,0.71875 -0.10938,1.4375 v 1.51563 q 0,0.70312 0.125,1.42187 0.125,0.71875 0.35938,1.39063 0.23437,0.67187 0.60937,1.26562 0.375,0.59375 0.89063,1.03125 0.51562,0.4375 1.17187,0.6875 0.65625,0.25 1.48438,0.25 0.8125,0 1.46875,-0.25 0.67187,-0.25 1.17187,-0.6875 0.51563,-0.4375 0.875,-1.01562 0.375,-0.59375 0.60938,-1.26563 0.23437,-0.67187 0.34375,-1.39062 0.125,-0.73438 0.14062,-1.4375 z m -1.67187,-1.53125 v 1.53125 q -0.0156,0.46875 -0.0625,0.98437 -0.0469,0.51563 -0.17188,1.01563 -0.14062,0.51562 -0.35937,0.98437 -0.20313,0.45313 -0.53125,0.79688 -0.32813,0.35937 -0.78125,0.57812 -0.45313,0.20313 -1.03125,0.20313 -0.59375,0 -1.04688,-0.20313 -0.4375,-0.21875 -0.76562,-0.57812 -0.32813,-0.34375 -0.54688,-0.8125 -0.21875,-0.46875 -0.35937,-0.96875 -0.14063,-0.5 -0.20313,-1.01563 -0.0625,-0.53125 -0.0625,-0.98437 v -1.53125 q 0,-0.46875 0.0625,-0.98438 0.0625,-0.51562 0.20313,-1.03125 0.125,-0.5 0.34375,-0.95312 0.21875,-0.46875 0.54687,-0.8125 0.32813,-0.35938 0.76563,-0.5625 0.45312,-0.20313 1.03125,-0.20313 0.59375,0 1.03125,0.20313 0.45312,0.20312 0.78125,0.54687 0.32812,0.35938 0.54687,0.82813 0.21875,0.45312 0.35938,0.95312 0.125,0.5 0.17187,1.01563 0.0625,0.51562 0.0781,1 z m 4.05496,7.39062 h 3.07812 q 0.95313,-0.0156 1.78125,-0.23437 0.82813,-0.21875 1.48438,-0.625 0.60937,-0.39063 1.10937,-0.9375 0.5,-0.5625 0.82813,-1.25 0.32812,-0.65625 0.48437,-1.4375 0.17188,-0.78125 0.17188,-1.65625 v -0.96875 q 0,-0.92188 -0.1875,-1.71875 -0.17188,-0.79688 -0.51563,-1.46875 -0.35937,-0.79688 -0.98437,-1.40625 -0.625,-0.60938 -1.4375,-0.98438 -0.59375,-0.26562 -1.28125,-0.40625 -0.6875,-0.15625 -1.45313,-0.17187 h -3.07812 z m 1.71875,-11.875 h 1.35937 q 0.625,0 1.15625,0.14063 0.53125,0.125 0.95313,0.35937 0.60937,0.32813 1.01562,0.84375 0.42188,0.51563 0.65625,1.15625 0.20313,0.48438 0.29688,1.0625 0.0937,0.5625 0.0937,1.1875 v 0.98438 q 0,0.60937 -0.0937,1.17187 -0.0937,0.5625 -0.26563,1.04688 -0.21875,0.59375 -0.57812,1.07812 -0.35938,0.46875 -0.84375,0.79688 -0.46875,0.3125 -1.07813,0.48437 -0.59375,0.17188 -1.3125,0.1875 h -1.35937 z m 16.94555,5.75 v -1.4375 h -5.53125 v -4.26562 h 6.375 v -1.4375 h -8.0625 v 13.26562 h 8.14063 v -1.4375 h -6.45313 v -4.6875 z m 15.3599,-3.73437 v 1.46875 h 3.35937 v 6.9375 h -3.35937 v 1.45312 h 8.26562 v -1.45312 h -3.21875 v -8.40625 z m 3.14062,-2.57813 q 0,0.40625 0.25,0.6875 0.25,0.26563 0.76563,0.26563 0.5,0 0.75,-0.26563 0.25,-0.28125 0.25,-0.6875 0,-0.23437 -0.0781,-0.42187 -0.0625,-0.1875 -0.20312,-0.32813 -0.125,-0.10937 -0.3125,-0.17187 -0.17188,-0.0781 -0.40625,-0.0781 -0.25,0 -0.4375,0.0781 -0.17188,0.0625 -0.29688,0.17187 -0.14062,0.14063 -0.21875,0.34375 -0.0625,0.1875 -0.0625,0.40625 z m 7.78934,12.4375 h 1.6875 v -7.0625 q 0.17187,-0.32812 0.40625,-0.59375 0.23437,-0.26562 0.51562,-0.45312 0.32813,-0.23438 0.71875,-0.35938 0.40625,-0.14062 0.875,-0.14062 0.54688,0 0.95313,0.125 0.42187,0.125 0.70312,0.40625 0.28125,0.29687 0.42188,0.75 0.15625,0.45312 0.15625,1.10937 v 6.21875 h 1.6875 v -6.26562 q 0,-0.96875 -0.25,-1.6875 -0.23438,-0.71875 -0.6875,-1.1875 -0.4375,-0.45313 -1.07813,-0.67188 -0.625,-0.21875 -1.40625,-0.21875 -0.5625,0 -1.07812,0.17188 -0.51563,0.15625 -0.95313,0.4375 -0.29687,0.1875 -0.5625,0.45312 -0.25,0.26563 -0.46875,0.5625 l -0.125,-1.45312 h -1.51562 z m 15.19556,-12.25 h -1.70313 v 2.39063 h -2.57812 v 1.3125 h 2.57812 v 5.34375 q 0,0.92187 0.23438,1.5625 0.25,0.64062 0.67187,1.04687 0.42188,0.40625 0.98438,0.59375 0.57812,0.1875 1.23437,0.1875 0.39063,0 0.78125,-0.0469 0.40625,-0.0312 0.75,-0.10938 0.35938,-0.0625 0.65625,-0.15625 0.29688,-0.0937 0.51563,-0.21875 l -0.23438,-1.20312 q -0.15625,0.0469 -0.40625,0.0937 -0.23437,0.0469 -0.51562,0.0937 -0.28125,0.0469 -0.57813,0.0781 -0.28125,0.0312 -0.54687,0.0312 -0.375,0 -0.71875,-0.0937 -0.32813,-0.0937 -0.57813,-0.3125 -0.26562,-0.21875 -0.40625,-0.59375 -0.14062,-0.375 -0.14062,-0.95312 v -5.34375 h 3.75 v -1.3125 h -3.75 z m 11.55496,12.4375 q 1.4375,0 2.42187,-0.57812 0.98438,-0.57813 1.46875,-1.32813 l -1.03125,-0.79687 q -0.46875,0.59375 -1.17187,0.96875 -0.6875,0.35937 -1.59375,0.35937 -0.6875,0 -1.25,-0.25 -0.5625,-0.26562 -0.96875,-0.71875 -0.39063,-0.40625 -0.60938,-0.95312 -0.21875,-0.54688 -0.28125,-1.26563 v -0.0781 h 7.03125 v -0.75 q 0,-1.03125 -0.26562,-1.90625 -0.25,-0.89063 -0.78125,-1.54688 -0.53125,-0.64062 -1.32813,-1 -0.79687,-0.375 -1.85937,-0.375 -0.84375,0 -1.65625,0.34375 -0.79688,0.34375 -1.4375,0.98438 -0.625,0.65625 -1.01563,1.60937 -0.375,0.9375 -0.375,2.125 v 0.39063 q 0,1.03125 0.34375,1.90625 0.34375,0.875 0.96875,1.5 0.60938,0.64062 1.48438,1 0.875,0.35937 1.90625,0.35937 z m -0.21875,-8.84375 q 0.65625,0 1.125,0.23438 0.46875,0.23437 0.76562,0.625 0.3125,0.375 0.48438,0.90625 0.17187,0.51562 0.17187,0.98437 v 0.0781 h -5.29687 q 0.0937,-0.6875 0.34375,-1.20313 0.26562,-0.53125 0.625,-0.89062 0.35937,-0.35938 0.8125,-0.54688 0.45312,-0.1875 0.96875,-0.1875 z m 6.75806,3.64063 v 0.20312 q 0,1.04688 0.26562,1.96875 0.28125,0.90625 0.78125,1.59375 0.5,0.67188 1.23438,1.0625 0.73437,0.375 1.625,0.375 0.54687,0 1,-0.125 0.46875,-0.10937 0.85937,-0.3125 0.23438,-0.14062 0.45313,-0.3125 0.21875,-0.1875 0.40625,-0.40625 v 0.84375 q 0,0.64063 -0.1875,1.125 -0.17188,0.5 -0.51563,0.82813 -0.34375,0.32812 -0.82812,0.5 -0.48438,0.17187 -1.07813,0.17187 -0.34375,0 -0.6875,-0.0625 -0.32812,-0.0625 -0.67187,-0.21875 -0.32813,-0.15625 -0.65625,-0.42187 -0.32813,-0.25 -0.64063,-0.625 l -0.875,1 q 0.34375,0.48437 0.8125,0.8125 0.46875,0.32812 0.96875,0.51562 0.5,0.20313 0.98438,0.28125 0.5,0.0937 0.89062,0.0937 0.92188,0 1.6875,-0.28125 0.76563,-0.26562 1.32813,-0.78125 0.54687,-0.53125 0.84375,-1.29687 0.3125,-0.75 0.3125,-1.71875 v -9.65625 h -1.53125 l -0.0781,1.07812 q -0.17187,-0.21875 -0.375,-0.39062 -0.1875,-0.1875 -0.40625,-0.32813 -0.40625,-0.26562 -0.90625,-0.39062 -0.5,-0.14063 -1.09375,-0.14063 -0.90625,0 -1.64062,0.375 -0.73438,0.35938 -1.23438,1.03125 -0.51562,0.65625 -0.78125,1.59375 -0.26562,0.92188 -0.26562,2.01563 z m 1.67187,0.20312 v -0.20312 q 0,-0.71875 0.15625,-1.35938 0.15625,-0.65625 0.48438,-1.15625 0.3125,-0.5 0.8125,-0.78125 0.51562,-0.29687 1.21875,-0.29687 0.42187,0 0.76562,0.10937 0.34375,0.0937 0.625,0.28125 0.29688,0.1875 0.51563,0.45313 0.21875,0.25 0.375,0.5625 v 4.51562 q -0.15625,0.3125 -0.375,0.57813 -0.21875,0.26562 -0.5,0.45312 -0.28125,0.20313 -0.64063,0.3125 -0.34375,0.0937 -0.78125,0.0937 -0.70312,0 -1.20312,-0.28125 -0.5,-0.29687 -0.8125,-0.78125 -0.32813,-0.5 -0.48438,-1.14062 -0.15625,-0.64063 -0.15625,-1.35938 z m 16.28934,-5.21875 q -1.07813,0 -1.92188,0.46875 -0.84375,0.46875 -1.4375,1.26563 l -0.0156,-0.23438 -0.0781,-1.32812 h -1.59375 v 9.85937 h 1.6875 v -6.32812 q 0.17188,-0.45313 0.42188,-0.8125 0.25,-0.375 0.57812,-0.625 0.375,-0.29688 0.875,-0.4375 0.5,-0.15625 1.125,-0.15625 0.48438,0 0.92188,0.0469 0.45312,0.0469 0.9375,0.15625 l 0.23437,-1.64062 q -0.26562,-0.10938 -0.76562,-0.17188 -0.5,-0.0625 -0.96875,-0.0625 z m 11.21118,10.03125 h 1.75 v -0.14062 q -0.15625,-0.42188 -0.25,-0.96875 -0.0937,-0.54688 -0.0937,-1.04688 v -4.57812 q 0,-0.82813 -0.29688,-1.4375 -0.29687,-0.625 -0.8125,-1.04688 -0.53125,-0.40625 -1.25,-0.60937 -0.71875,-0.20313 -1.5625,-0.20313 -0.92187,0 -1.65625,0.25 -0.71875,0.25 -1.21875,0.65625 -0.5,0.42188 -0.78125,0.95313 -0.26562,0.51562 -0.26562,1.04687 h 1.6875 q 0,-0.3125 0.14062,-0.59375 0.15625,-0.28125 0.4375,-0.5 0.26563,-0.20312 0.65625,-0.32812 0.40625,-0.14063 0.90625,-0.14063 0.54688,0 0.96875,0.14063 0.4375,0.14062 0.73438,0.39062 0.29687,0.25 0.45312,0.60938 0.17188,0.34375 0.17188,0.79687 v 0.78125 h -1.82813 q -1.03125,0 -1.875,0.20313 -0.82812,0.1875 -1.42187,0.59375 -0.59375,0.40625 -0.92188,1.01562 -0.3125,0.60938 -0.3125,1.42188 0,0.625 0.23438,1.15625 0.25,0.53125 0.6875,0.90625 0.4375,0.40625 1.0625,0.64062 0.64062,0.21875 1.4375,0.21875 0.46875,0 0.89062,-0.10937 0.4375,-0.0937 0.82813,-0.26563 0.375,-0.17187 0.6875,-0.39062 0.3125,-0.23438 0.5625,-0.5 0.0312,0.3125 0.0937,0.60937 0.0625,0.28125 0.15625,0.46875 z m -2.98438,-1.28125 q -0.48437,0 -0.85937,-0.125 -0.375,-0.14062 -0.625,-0.35937 -0.23438,-0.21875 -0.35938,-0.53125 -0.125,-0.3125 -0.125,-0.67188 0,-0.39062 0.14063,-0.6875 0.14062,-0.29687 0.40625,-0.51562 0.39062,-0.3125 1.03125,-0.45313 0.65625,-0.15625 1.53125,-0.15625 h 1.5625 v 2 q -0.14063,0.28125 -0.40625,0.5625 -0.25,0.26563 -0.59375,0.46875 -0.34375,0.20313 -0.78125,0.34375 -0.42188,0.125 -0.92188,0.125 z M 374.3053,61.93799 h -1.70312 v 2.39063 h -2.57813 v 1.3125 h 2.57813 v 5.34375 q 0,0.92187 0.23437,1.5625 0.25,0.64062 0.67188,1.04687 0.42187,0.40625 0.98437,0.59375 0.57813,0.1875 1.23438,0.1875 0.39062,0 0.78125,-0.0469 0.40625,-0.0312 0.75,-0.10938 0.35937,-0.0625 0.65625,-0.15625 0.29687,-0.0937 0.51562,-0.21875 l -0.23437,-1.20312 q -0.15625,0.0469 -0.40625,0.0937 -0.23438,0.0469 -0.51563,0.0937 -0.28125,0.0469 -0.57812,0.0781 -0.28125,0.0312 -0.54688,0.0312 -0.375,0 -0.71875,-0.0937 -0.32812,-0.0937 -0.57812,-0.3125 -0.26563,-0.21875 -0.40625,-0.59375 -0.14063,-0.375 -0.14063,-0.95312 v -5.34375 h 3.75 v -1.3125 h -3.75 z m 6.72681,7.23438 v 0.20312 q 0,1.0625 0.3125,1.96875 0.3125,0.90625 0.89062,1.59375 0.57813,0.67188 1.40625,1.0625 0.84375,0.375 1.89063,0.375 1.03125,0 1.85937,-0.375 0.82813,-0.39062 1.40625,-1.0625 0.57813,-0.6875 0.89063,-1.59375 0.3125,-0.90625 0.3125,-1.96875 v -0.20312 q 0,-1.0625 -0.3125,-1.98438 -0.3125,-0.92187 -0.89063,-1.59375 -0.57812,-0.67187 -1.42187,-1.04687 -0.82813,-0.39063 -1.875,-0.39063 -1.03125,0 -1.85938,0.39063 -0.82812,0.375 -1.40625,1.04687 -0.57812,0.67188 -0.89062,1.59375 -0.3125,0.92188 -0.3125,1.98438 z m 1.6875,0.20312 v -0.20312 q 0,-0.71875 0.17187,-1.375 0.17188,-0.67188 0.53125,-1.17188 0.34375,-0.5 0.85938,-0.79687 0.51562,-0.29688 1.21875,-0.29688 0.70312,0 1.21875,0.29688 0.53125,0.29687 0.89062,0.79687 0.34375,0.5 0.51563,1.17188 0.1875,0.65625 0.1875,1.375 v 0.20312 q 0,0.71875 -0.17188,1.39063 -0.17187,0.65625 -0.51562,1.15625 -0.35938,0.5 -0.89063,0.79687 -0.51562,0.28125 -1.20312,0.28125 -0.70313,0 -1.23438,-0.28125 -0.53125,-0.29687 -0.875,-0.79687 -0.35937,-0.5 -0.53125,-1.15625 -0.17187,-0.67188 -0.17187,-1.39063 z m 16.44559,-5.21875 q -1.07813,0 -1.92188,0.46875 -0.84375,0.46875 -1.4375,1.26563 l -0.0156,-0.23438 -0.0781,-1.32812 h -1.59375 v 9.85937 h 1.6875 v -6.32812 q 0.17188,-0.45313 0.42188,-0.8125 0.25,-0.375 0.57812,-0.625 0.375,-0.29688 0.875,-0.4375 0.5,-0.15625 1.125,-0.15625 0.48438,0 0.92188,0.0469 0.45312,0.0469 0.9375,0.15625 l 0.23437,-1.64062 q -0.26562,-0.10938 -0.76562,-0.17188 -0.5,-0.0625 -0.96875,-0.0625 z"
     id="path49" />
  <path
     inkscape:connector-curvature="0"
     style="fill:#fce5cd;fill-rule:evenodd"
     d="m 452.67715,50.36366 v 0 c 0,-2.07498 1.6821,-3.75708 3.75708,-3.75708 H 653.802 c 0.9964,0 1.95203,0.39584 2.65662,1.10043 0.70459,0.70459 1.10046,1.66022 1.10046,2.65665 v 33.80869 c 0,2.07498 -1.68213,3.75708 -3.75708,3.75708 H 456.43423 c -2.07498,0 -3.75708,-1.6821 -3.75708,-3.75708 z"
     id="path51" />
  <path
     inkscape:connector-curvature="0"
     style="fill-rule:evenodd;stroke:#ff9900;stroke-width:2;stroke-linecap:butt;stroke-linejoin:round"
     d="m 452.67715,50.36366 v 0 c 0,-2.07498 1.6821,-3.75708 3.75708,-3.75708 H 653.802 c 0.9964,0 1.95203,0.39584 2.65662,1.10043 0.70459,0.70459 1.10046,1.66022 1.10046,2.65665 v 33.80869 c 0,2.07498 -1.68213,3.75708 -3.75708,3.75708 H 456.43423 c -2.07498,0 -3.75708,-1.6821 -3.75708,-3.75708 z"
     id="path53" />
  <path
     inkscape:connector-curvature="0"
     style="fill:#000000;fill-rule:nonzero"
     d="m 466.95978,74.18799 h 3.07812 q 0.95313,-0.0156 1.78125,-0.23438 0.82813,-0.21875 1.48438,-0.625 0.60937,-0.39062 1.10937,-0.9375 0.5,-0.5625 0.82813,-1.25 0.32812,-0.65625 0.48437,-1.4375 0.17188,-0.78125 0.17188,-1.65625 v -0.96875 q 0,-0.92187 -0.1875,-1.71875 -0.17188,-0.79687 -0.51563,-1.46875 -0.35937,-0.79687 -0.98437,-1.40625 -0.625,-0.60937 -1.4375,-0.98437 -0.59375,-0.26563 -1.28125,-0.40625 -0.6875,-0.15625 -1.45313,-0.17188 h -3.07812 z m 1.71875,-11.875 h 1.35937 q 0.625,0 1.15625,0.14062 0.53125,0.125 0.95313,0.35938 0.60937,0.32812 1.01562,0.84375 0.42188,0.51562 0.65625,1.15625 0.20313,0.48437 0.29688,1.0625 0.0937,0.5625 0.0937,1.1875 v 0.98437 q 0,0.60938 -0.0937,1.17188 -0.0937,0.5625 -0.26563,1.04687 -0.21875,0.59375 -0.57812,1.07813 -0.35938,0.46875 -0.84375,0.79687 -0.46875,0.3125 -1.07813,0.48438 -0.59375,0.17187 -1.3125,0.1875 h -1.35937 z m 10.44559,15.85937 q 0.67187,0 1.17187,-0.25 0.51563,-0.25 0.90625,-0.60937 0.375,-0.35938 0.64063,-0.79688 0.26562,-0.42187 0.4375,-0.8125 l 5.01562,-11.375 h -1.89062 l -2.54688,6.39063 -0.46875,1.15625 -0.4375,-1.1875 -2.70312,-6.35938 h -1.875 l 4.23437,9.39063 -0.67187,1.3125 q -0.0937,0.1875 -0.25,0.46875 -0.15625,0.28125 -0.375,0.54687 -0.23438,0.26563 -0.51563,0.45313 -0.28125,0.1875 -0.64062,0.1875 -0.125,0 -0.34375,-0.0156 -0.21875,0 -0.45313,-0.0312 l -0.26562,1.375 q 0.15625,0.0469 0.46875,0.0937 0.32812,0.0625 0.5625,0.0625 z m 10.39868,-3.98437 h 1.6875 v -7.0625 q 0.17187,-0.32813 0.40625,-0.59375 0.23437,-0.26563 0.51562,-0.45313 0.32813,-0.23437 0.71875,-0.35937 0.40625,-0.14063 0.875,-0.14063 0.54688,0 0.95313,0.125 0.42187,0.125 0.70312,0.40625 0.28125,0.29688 0.42188,0.75 0.15625,0.45313 0.15625,1.10938 v 6.21875 h 1.68753 v -6.26563 q 0,-0.96875 -0.25,-1.6875 -0.23438,-0.71875 -0.68753,-1.1875 -0.4375,-0.45312 -1.07813,-0.67187 -0.625,-0.21875 -1.40625,-0.21875 -0.5625,0 -1.07812,0.17187 -0.51563,0.15625 -0.95313,0.4375 -0.29687,0.1875 -0.5625,0.45313 -0.25,0.26562 -0.46875,0.5625 l -0.125,-1.45313 h -1.51562 z m 17.67996,0 h 1.75 v -0.14063 q -0.15625,-0.42187 -0.25,-0.96875 -0.0937,-0.54687 -0.0937,-1.04687 v -4.57813 q 0,-0.82812 -0.29687,-1.4375 -0.29688,-0.625 -0.8125,-1.04687 -0.53125,-0.40625 -1.25,-0.60938 -0.71875,-0.20312 -1.5625,-0.20312 -0.92188,0 -1.65625,0.25 -0.71875,0.25 -1.21875,0.65625 -0.5,0.42187 -0.78125,0.95312 -0.26563,0.51563 -0.26563,1.04688 h 1.6875 q 0,-0.3125 0.14063,-0.59375 0.15625,-0.28125 0.4375,-0.5 0.26562,-0.20313 0.65625,-0.32813 0.40625,-0.14062 0.90625,-0.14062 0.54687,0 0.96875,0.14062 0.4375,0.14063 0.73437,0.39063 0.29688,0.25 0.45313,0.60937 0.17187,0.34375 0.17187,0.79688 v 0.78125 h -1.82812 q -1.03125,0 -1.875,0.20312 -0.82813,0.1875 -1.42188,0.59375 -0.59375,0.40625 -0.92187,1.01563 -0.3125,0.60937 -0.3125,1.42187 0,0.625 0.23437,1.15625 0.25,0.53125 0.6875,0.90625 0.4375,0.40625 1.0625,0.64063 0.64063,0.21875 1.4375,0.21875 0.46875,0 0.89063,-0.10938 0.4375,-0.0937 0.82812,-0.26562 0.375,-0.17188 0.6875,-0.39063 0.3125,-0.23437 0.5625,-0.5 0.0312,0.3125 0.0937,0.60938 0.0625,0.28125 0.15625,0.46875 z m -2.98437,-1.28125 q -0.48438,0 -0.85938,-0.125 -0.375,-0.14063 -0.625,-0.35938 -0.23437,-0.21875 -0.35937,-0.53125 -0.125,-0.3125 -0.125,-0.67187 0,-0.39063 0.14062,-0.6875 0.14063,-0.29688 0.40625,-0.51563 0.39063,-0.3125 1.03125,-0.45312 0.65625,-0.15625 1.53125,-0.15625 h 1.5625 v 2 q -0.14062,0.28125 -0.40625,0.5625 -0.25,0.26562 -0.59375,0.46875 -0.34375,0.20312 -0.78125,0.34375 -0.42187,0.125 -0.92187,0.125 z m 8.4768,-8.57813 h -1.51562 v 9.85938 h 1.60937 v -7.84375 q 0.0469,-0.14063 0.125,-0.26563 0.0937,-0.14062 0.21875,-0.23437 0.15625,-0.125 0.375,-0.1875 0.21875,-0.0781 0.53125,-0.0781 0.26563,0 0.46875,0.0781 0.20313,0.0625 0.34375,0.20312 0.15625,0.15625 0.21875,0.39063 0.0625,0.23437 0.0625,0.54687 v 7.39063 h 1.60938 v -7.375 q 0,-0.0625 0,-0.0937 0,-0.0469 0,-0.0937 0.0312,-0.21875 0.10937,-0.40625 0.0781,-0.1875 0.21875,-0.34375 0.15625,-0.125 0.375,-0.20313 0.21875,-0.0937 0.51563,-0.0937 0.28125,0 0.48437,0.0781 0.21875,0.0625 0.375,0.21875 0.14063,0.15625 0.20313,0.39062 0.0781,0.23438 0.0781,0.54688 v 7.375 h 1.59375 v -7.35938 q 0,-0.71875 -0.17187,-1.23437 -0.15625,-0.53125 -0.45313,-0.85938 -0.28125,-0.28125 -0.70312,-0.42187 -0.40625,-0.15625 -0.92188,-0.15625 -0.35937,0 -0.6875,0.0937 -0.3125,0.0937 -0.5625,0.25 -0.20312,0.125 -0.375,0.3125 -0.17187,0.1875 -0.29687,0.39062 -0.10938,-0.21875 -0.25,-0.40625 -0.14063,-0.1875 -0.3125,-0.3125 -0.23438,-0.15625 -0.54688,-0.23437 -0.3125,-0.0937 -0.70312,-0.0937 -0.6875,0 -1.1875,0.29687 -0.48438,0.28125 -0.78125,0.8125 z m 10.67993,0 v 1.46875 h 3.35938 v 6.9375 h -3.35938 v 1.45313 h 8.26563 V 72.73486 H 528.422 v -8.40625 z m 3.14063,-2.57812 q 0,0.40625 0.25,0.6875 0.25,0.26562 0.76562,0.26562 0.5,0 0.75,-0.26562 0.25,-0.28125 0.25,-0.6875 0,-0.23438 -0.0781,-0.42188 -0.0625,-0.1875 -0.20313,-0.32812 -0.125,-0.10938 -0.3125,-0.17188 -0.17187,-0.0781 -0.40625,-0.0781 -0.25,0 -0.4375,0.0781 -0.17187,0.0625 -0.29687,0.17188 -0.14063,0.14062 -0.21875,0.34375 -0.0625,0.1875 -0.0625,0.40625 z m 11.99249,11.25 q -0.79687,0 -1.32812,-0.3125 -0.53125,-0.3125 -0.84375,-0.82813 -0.32813,-0.5 -0.46875,-1.125 -0.14063,-0.64062 -0.14063,-1.28125 v -0.39062 q 0,-0.625 0.14063,-1.25 0.14062,-0.64063 0.46875,-1.15625 0.32812,-0.5 0.85937,-0.8125 0.53125,-0.3125 1.3125,-0.3125 0.51563,0 0.95313,0.17187 0.4375,0.17188 0.76562,0.48438 0.3125,0.29687 0.5,0.6875 0.1875,0.39062 0.20313,0.84375 h 1.59375 q 0,-0.75 -0.3125,-1.40625 -0.29688,-0.65625 -0.82813,-1.14063 -0.53125,-0.46875 -1.26562,-0.73437 -0.73438,-0.28125 -1.60938,-0.28125 -1.10937,0 -1.95312,0.40625 -0.84375,0.39062 -1.39063,1.0625 -0.5625,0.6875 -0.85937,1.57812 -0.28125,0.89063 -0.28125,1.85938 v 0.39062 q 0,0.98438 0.28125,1.875 0.29687,0.875 0.85937,1.5625 0.54688,0.67188 1.39063,1.07813 0.84375,0.40625 1.95312,0.40625 0.78125,0 1.5,-0.26563 0.71875,-0.28125 1.28125,-0.73437 0.5625,-0.4375 0.89063,-1.03125 0.32812,-0.60938 0.34375,-1.26563 h -1.59375 q -0.0156,0.40625 -0.21875,0.76563 -0.20313,0.34375 -0.54688,0.60937 -0.32812,0.26563 -0.76562,0.40625 -0.4375,0.14063 -0.89063,0.14063 z m 24.65674,-8.84375 q -1.07812,0 -1.92187,0.46875 -0.84375,0.46875 -1.4375,1.26562 l -0.0156,-0.23437 -0.0781,-1.32813 h -1.59375 v 9.85938 h 1.6875 v -6.32813 q 0.17187,-0.45312 0.42187,-0.8125 0.25,-0.375 0.57813,-0.625 0.375,-0.29687 0.875,-0.4375 0.5,-0.15625 1.125,-0.15625 0.48437,0 0.92187,0.0469 0.45313,0.0469 0.9375,0.15625 l 0.23438,-1.64063 q -0.26563,-0.10937 -0.76563,-0.17187 -0.5,-0.0625 -0.96875,-0.0625 z m 9.08618,10.21875 q 1.4375,0 2.42188,-0.57813 0.98437,-0.57812 1.46875,-1.32812 l -1.03125,-0.79688 q -0.46875,0.59375 -1.17188,0.96875 -0.6875,0.35938 -1.59375,0.35938 -0.6875,0 -1.25,-0.25 -0.5625,-0.26563 -0.96875,-0.71875 -0.39062,-0.40625 -0.60937,-0.95313 -0.21875,-0.54687 -0.28125,-1.26562 v -0.0781 h 7.03125 v -0.75 q 0,-1.03125 -0.26563,-1.90625 -0.25,-0.89062 -0.78125,-1.54687 -0.53125,-0.64063 -1.32812,-1 -0.79688,-0.375 -1.85938,-0.375 -0.84375,0 -1.65625,0.34375 -0.79687,0.34375 -1.4375,0.98437 -0.625,0.65625 -1.01562,1.60938 -0.375,0.9375 -0.375,2.125 v 0.39062 q 0,1.03125 0.34375,1.90625 0.34375,0.875 0.96875,1.5 0.60937,0.64063 1.48437,1 0.875,0.35938 1.90625,0.35938 z m -0.21875,-8.84375 q 0.65625,0 1.125,0.23437 0.46875,0.23438 0.76563,0.625 0.3125,0.375 0.48437,0.90625 0.17188,0.51563 0.17188,0.98438 v 0.0781 h -5.29688 q 0.0937,-0.6875 0.34375,-1.20312 0.26563,-0.53125 0.625,-0.89063 0.35938,-0.35937 0.8125,-0.54687 0.45313,-0.1875 0.96875,-0.1875 z m 13.6175,6.04687 q 0,0.23438 -0.0937,0.45313 -0.0937,0.20312 -0.26563,0.375 -0.28125,0.28125 -0.78125,0.4375 -0.5,0.15625 -1.17187,0.15625 -0.4375,0 -0.875,-0.0781 -0.4375,-0.0937 -0.79688,-0.3125 -0.35937,-0.21875 -0.60937,-0.57812 -0.23438,-0.35938 -0.26563,-0.875 h -1.6875 q 0,0.625 0.28125,1.21875 0.29688,0.57812 0.84375,1.01562 0.53125,0.4375 1.3125,0.71875 0.78125,0.26563 1.79688,0.26563 0.875,0 1.60937,-0.20313 0.73438,-0.21875 1.26563,-0.60937 0.53125,-0.375 0.8125,-0.90625 0.29687,-0.54688 0.29687,-1.20313 0,-0.60937 -0.26562,-1.0625 -0.25,-0.46875 -0.73438,-0.82812 -0.5,-0.34375 -1.21875,-0.59375 -0.71875,-0.25 -1.625,-0.45313 -0.6875,-0.125 -1.14062,-0.26562 -0.45313,-0.15625 -0.71875,-0.34375 -0.28125,-0.17188 -0.39063,-0.40625 -0.10937,-0.23438 -0.10937,-0.51563 0,-0.28125 0.14062,-0.54687 0.14063,-0.26563 0.40625,-0.46875 0.26563,-0.20313 0.67188,-0.3125 0.40625,-0.125 0.95312,-0.125 0.51563,0 0.92188,0.15625 0.42187,0.14062 0.71875,0.375 0.28125,0.23437 0.4375,0.54687 0.17187,0.29688 0.17187,0.625 h 1.6875 q 0,-0.65625 -0.28125,-1.21875 -0.26562,-0.5625 -0.78125,-0.96875 -0.51562,-0.42187 -1.25,-0.65625 -0.71875,-0.23437 -1.625,-0.23437 -0.85937,0 -1.5625,0.23437 -0.70312,0.21875 -1.21875,0.60938 -0.5,0.39062 -0.78125,0.92187 -0.28125,0.51563 -0.28125,1.10938 0,0.60937 0.26563,1.07812 0.28125,0.45313 0.78125,0.79688 0.48437,0.34375 1.17187,0.59375 0.70313,0.23437 1.5625,0.42187 0.6875,0.125 1.14063,0.29688 0.46875,0.17187 0.75,0.375 0.28125,0.20312 0.40625,0.4375 0.125,0.23437 0.125,0.54687 z m 4.63305,6.40625 h 1.6875 v -4.75 q 0.17188,0.20313 0.375,0.375 0.21875,0.17188 0.45313,0.3125 0.39062,0.21875 0.875,0.32813 0.5,0.125 1.0625,0.125 0.92187,0 1.64062,-0.375 0.73438,-0.39063 1.23438,-1.0625 0.48437,-0.6875 0.73437,-1.59375 0.26563,-0.92188 0.26563,-1.96875 v -0.20313 q 0,-1.09375 -0.26563,-2.01562 -0.25,-0.9375 -0.73437,-1.59375 -0.5,-0.67188 -1.23438,-1.03125 -0.71875,-0.375 -1.67187,-0.375 -0.53125,0 -1,0.10937 -0.46875,0.10938 -0.85938,0.32813 -0.26562,0.14062 -0.51562,0.35937 -0.23438,0.20313 -0.42188,0.45313 l -0.0937,-1.07813 h -1.53125 z m 6.64063,-8.8125 v 0.20313 q 0,0.71875 -0.17188,1.375 -0.15625,0.65625 -0.48437,1.15625 -0.32813,0.5 -0.84375,0.79687 -0.5,0.29688 -1.20313,0.29688 -0.4375,0 -0.79687,-0.10938 -0.35938,-0.10937 -0.64063,-0.3125 -0.26562,-0.15625 -0.46875,-0.39062 -0.1875,-0.23438 -0.34375,-0.51563 v -4.75 q 0.17188,-0.29687 0.39063,-0.54687 0.23437,-0.26563 0.53125,-0.4375 0.26562,-0.17188 0.59375,-0.26563 0.32812,-0.0937 0.71875,-0.0937 0.71875,0 1.21875,0.29688 0.51562,0.28125 0.84375,0.78125 0.32812,0.5 0.48437,1.15625 0.17188,0.64062 0.17188,1.35937 z m 4.08618,0 v 0.20313 q 0,1.0625 0.3125,1.96875 0.3125,0.90625 0.89062,1.59375 0.57813,0.67187 1.40625,1.0625 0.84375,0.375 1.89063,0.375 1.03125,0 1.85937,-0.375 0.82813,-0.39063 1.40625,-1.0625 0.57813,-0.6875 0.89063,-1.59375 0.3125,-0.90625 0.3125,-1.96875 v -0.20313 q 0,-1.0625 -0.3125,-1.98437 -0.3125,-0.92188 -0.89063,-1.59375 -0.57812,-0.67188 -1.42187,-1.04688 -0.82813,-0.39062 -1.875,-0.39062 -1.03125,0 -1.85938,0.39062 -0.82812,0.375 -1.40625,1.04688 -0.57812,0.67187 -0.89062,1.59375 -0.3125,0.92187 -0.3125,1.98437 z m 1.6875,0.20313 v -0.20313 q 0,-0.71875 0.17187,-1.375 0.17188,-0.67187 0.53125,-1.17187 0.34375,-0.5 0.85938,-0.79688 0.51562,-0.29687 1.21875,-0.29687 0.70312,0 1.21875,0.29687 0.53125,0.29688 0.89062,0.79688 0.34375,0.5 0.51563,1.17187 0.1875,0.65625 0.1875,1.375 v 0.20313 q 0,0.71875 -0.17188,1.39062 -0.17187,0.65625 -0.51562,1.15625 -0.35938,0.5 -0.89063,0.79688 -0.51562,0.28125 -1.20312,0.28125 -0.70313,0 -1.23438,-0.28125 -0.53125,-0.29688 -0.875,-0.79688 -0.35937,-0.5 -0.53125,-1.15625 -0.17187,-0.67187 -0.17187,-1.39062 z m 9.97681,4.8125 h 1.6875 v -7.0625 q 0.17187,-0.32813 0.40625,-0.59375 0.23437,-0.26563 0.51562,-0.45313 0.32813,-0.23437 0.71875,-0.35937 0.40625,-0.14063 0.875,-0.14063 0.54688,0 0.95313,0.125 0.42187,0.125 0.70312,0.40625 0.28125,0.29688 0.42188,0.75 0.15625,0.45313 0.15625,1.10938 v 6.21875 h 1.6875 v -6.26563 q 0,-0.96875 -0.25,-1.6875 -0.23438,-0.71875 -0.6875,-1.1875 -0.4375,-0.45312 -1.07813,-0.67187 -0.625,-0.21875 -1.40625,-0.21875 -0.5625,0 -1.07812,0.17187 -0.51563,0.15625 -0.95313,0.4375 -0.29687,0.1875 -0.5625,0.45313 -0.25,0.26562 -0.46875,0.5625 l -0.125,-1.45313 h -1.51562 z m 17.75811,-2.60938 q 0,0.23438 -0.0937,0.45313 -0.0937,0.20312 -0.26562,0.375 -0.28125,0.28125 -0.78125,0.4375 -0.5,0.15625 -1.17188,0.15625 -0.4375,0 -0.875,-0.0781 -0.4375,-0.0937 -0.79687,-0.3125 -0.35938,-0.21875 -0.60938,-0.57812 -0.23437,-0.35938 -0.26562,-0.875 h -1.6875 q 0,0.625 0.28125,1.21875 0.29687,0.57812 0.84375,1.01562 0.53125,0.4375 1.3125,0.71875 0.78125,0.26563 1.79687,0.26563 0.875,0 1.60938,-0.20313 0.73437,-0.21875 1.26562,-0.60937 0.53125,-0.375 0.8125,-0.90625 0.29688,-0.54688 0.29688,-1.20313 0,-0.60937 -0.26563,-1.0625 -0.25,-0.46875 -0.73437,-0.82812 -0.5,-0.34375 -1.21875,-0.59375 -0.71875,-0.25 -1.625,-0.45313 -0.6875,-0.125 -1.14063,-0.26562 -0.45312,-0.15625 -0.71875,-0.34375 -0.28125,-0.17188 -0.39062,-0.40625 -0.10938,-0.23438 -0.10938,-0.51563 0,-0.28125 0.14063,-0.54687 0.14062,-0.26563 0.40625,-0.46875 0.26562,-0.20313 0.67187,-0.3125 0.40625,-0.125 0.95313,-0.125 0.51562,0 0.92187,0.15625 0.42188,0.14062 0.71875,0.375 0.28125,0.23437 0.4375,0.54687 0.17188,0.29688 0.17188,0.625 h 1.6875 q 0,-0.65625 -0.28125,-1.21875 -0.26563,-0.5625 -0.78125,-0.96875 -0.51563,-0.42187 -1.25,-0.65625 -0.71875,-0.23437 -1.625,-0.23437 -0.85938,0 -1.5625,0.23437 -0.70313,0.21875 -1.21875,0.60938 -0.5,0.39062 -0.78125,0.92187 -0.28125,0.51563 -0.28125,1.10938 0,0.60937 0.26562,1.07812 0.28125,0.45313 0.78125,0.79688 0.48438,0.34375 1.17188,0.59375 0.70312,0.23437 1.5625,0.42187 0.6875,0.125 1.14062,0.29688 0.46875,0.17187 0.75,0.375 0.28125,0.20312 0.40625,0.4375 0.125,0.23437 0.125,0.54687 z m 8.99244,2.79688 q 1.4375,0 2.42187,-0.57813 0.98438,-0.57812 1.46875,-1.32812 L 642.284,71.67236 q -0.46875,0.59375 -1.17187,0.96875 -0.6875,0.35938 -1.59375,0.35938 -0.6875,0 -1.25,-0.25 -0.5625,-0.26563 -0.96875,-0.71875 -0.39063,-0.40625 -0.60938,-0.95313 -0.21875,-0.54687 -0.28125,-1.26562 v -0.0781 h 7.03125 v -0.75 q 0,-1.03125 -0.26562,-1.90625 -0.25,-0.89062 -0.78125,-1.54687 -0.53125,-0.64063 -1.32813,-1 -0.79687,-0.375 -1.85937,-0.375 -0.84375,0 -1.65625,0.34375 -0.79688,0.34375 -1.4375,0.98437 -0.625,0.65625 -1.01563,1.60938 -0.375,0.9375 -0.375,2.125 v 0.39062 q 0,1.03125 0.34375,1.90625 0.34375,0.875 0.96875,1.5 0.60938,0.64063 1.48438,1 0.875,0.35938 1.90625,0.35938 z m -0.21875,-8.84375 q 0.65625,0 1.125,0.23437 0.46875,0.23438 0.76562,0.625 0.3125,0.375 0.48438,0.90625 0.17187,0.51563 0.17187,0.98438 v 0.0781 h -5.29687 q 0.0937,-0.6875 0.34375,-1.20312 0.26562,-0.53125 0.625,-0.89063 0.35937,-0.35937 0.8125,-0.54687 0.45312,-0.1875 0.96875,-0.1875 z"
     id="path55" />
  <path
     inkscape:connector-curvature="0"
     style="fill:#63d297;fill-opacity:0.2893;fill-rule:evenodd"
     d="m 696.41732,50.36338 v 0 c 0,-2.07498 1.68213,-3.75708 3.75708,-3.75708 h 223.22601 c 0.99646,0 1.95209,0.39584 2.65668,1.10043 0.70459,0.70459 1.1004,1.66022 1.1004,2.65665 v 33.80868 c 0,2.07499 -1.68207,3.75708 -3.75708,3.75708 H 700.1744 v 0 c -2.07495,0 -3.75708,-1.68209 -3.75708,-3.75708 z"
     id="path57" />
  <path
     inkscape:connector-curvature="0"
     style="fill-rule:evenodd;stroke:#4ba173;stroke-width:2;stroke-linecap:butt;stroke-linejoin:round"
     d="m 696.41732,50.36338 v 0 c 0,-2.07498 1.68213,-3.75708 3.75708,-3.75708 h 223.22601 c 0.99646,0 1.95209,0.39584 2.65668,1.10043 0.70459,0.70459 1.1004,1.66022 1.1004,2.65665 v 33.80868 c 0,2.07499 -1.68207,3.75708 -3.75708,3.75708 H 700.1744 v 0 c -2.07495,0 -3.75708,-1.68209 -3.75708,-3.75708 z"
     id="path59" />
  <path
     inkscape:connector-curvature="0"
     style="fill:#000000;fill-rule:nonzero"
     d="m 721.24597,68.32834 v -1.51563 q -0.0156,-0.71875 -0.14063,-1.4375 -0.10937,-0.73437 -0.34375,-1.40625 -0.25,-0.67187 -0.625,-1.25 -0.35937,-0.59375 -0.85937,-1.03125 -0.51563,-0.4375 -1.1875,-0.6875 -0.65625,-0.26562 -1.48438,-0.26562 -0.8125,0 -1.48437,0.26562 -0.65625,0.25 -1.15625,0.6875 -0.51563,0.4375 -0.89063,1.03125 -0.35937,0.57813 -0.59375,1.25 -0.25,0.6875 -0.375,1.40625 -0.10937,0.71875 -0.10937,1.4375 v 1.51563 q 0,0.70312 0.125,1.42187 0.125,0.71875 0.35937,1.39063 0.23438,0.67187 0.60938,1.26562 0.375,0.59375 0.89062,1.03125 0.51563,0.4375 1.17188,0.6875 0.65625,0.25 1.48437,0.25 0.8125,0 1.46875,-0.25 0.67188,-0.25 1.17188,-0.6875 0.51562,-0.4375 0.875,-1.01562 0.375,-0.59375 0.60937,-1.26563 0.23438,-0.67187 0.34375,-1.39062 0.125,-0.73438 0.14063,-1.4375 z m -1.67188,-1.53125 v 1.53125 q -0.0156,0.46875 -0.0625,0.98437 -0.0469,0.51563 -0.17187,1.01563 -0.14063,0.51562 -0.35938,0.98437 -0.20312,0.45313 -0.53125,0.79688 -0.32812,0.35937 -0.78125,0.57812 -0.45312,0.20313 -1.03125,0.20313 -0.59375,0 -1.04687,-0.20313 -0.4375,-0.21875 -0.76563,-0.57812 -0.32812,-0.34375 -0.54687,-0.8125 -0.21875,-0.46875 -0.35938,-0.96875 -0.14062,-0.5 -0.20312,-1.01563 -0.0625,-0.53125 -0.0625,-0.98437 v -1.53125 q 0,-0.46875 0.0625,-0.98438 0.0625,-0.51562 0.20312,-1.03125 0.125,-0.5 0.34375,-0.95312 0.21875,-0.46875 0.54688,-0.8125 0.32812,-0.35938 0.76562,-0.5625 0.45313,-0.20313 1.03125,-0.20313 0.59375,0 1.03125,0.20313 0.45313,0.20312 0.78125,0.54687 0.32813,0.35938 0.54688,0.82813 0.21875,0.45312 0.35937,0.95312 0.125,0.5 0.17188,1.01563 0.0625,0.51562 0.0781,1 z m 12.58625,2.57812 v -0.20312 q 0,-0.76563 -0.125,-1.45313 -0.125,-0.70312 -0.375,-1.28125 -0.23438,-0.51562 -0.54688,-0.92187 -0.3125,-0.42188 -0.70312,-0.70313 -0.4375,-0.3125 -0.98438,-0.48437 -0.53125,-0.17188 -1.15625,-0.17188 -0.51562,0 -0.95312,0.0937 -0.4375,0.0937 -0.79688,0.29688 -0.29687,0.15625 -0.5625,0.375 -0.25,0.20312 -0.45312,0.46875 v -5.20313 h -1.6875 v 14 h 1.54687 l 0.0781,-1.125 q 0.17187,0.21875 0.34375,0.39063 0.1875,0.17187 0.39062,0.3125 0.42188,0.29687 0.9375,0.45312 0.53125,0.15625 1.17188,0.15625 0.54687,0 1.01562,-0.14062 0.48438,-0.14063 0.89063,-0.39063 0.5625,-0.34375 0.95312,-0.89062 0.39063,-0.54688 0.64063,-1.21875 0.1875,-0.53125 0.28125,-1.125 0.0937,-0.59375 0.0937,-1.23438 z m -1.6875,-0.20312 v 0.20312 q 0,0.4375 -0.0625,0.85938 -0.0469,0.40625 -0.15625,0.78125 -0.15625,0.46875 -0.40625,0.875 -0.23438,0.39062 -0.60938,0.64062 -0.26562,0.20313 -0.60937,0.3125 -0.34375,0.0937 -0.76563,0.0937 -0.4375,0 -0.8125,-0.10937 -0.35937,-0.10938 -0.64062,-0.32813 -0.29688,-0.20312 -0.53125,-0.48437 -0.21875,-0.28125 -0.375,-0.60938 v -4.3125 q 0.15625,-0.32812 0.375,-0.59375 0.21875,-0.28125 0.51562,-0.5 0.28125,-0.1875 0.64063,-0.29687 0.375,-0.125 0.8125,-0.125 0.39062,0 0.71875,0.0937 0.32812,0.0937 0.59375,0.25 0.39062,0.23437 0.65625,0.64062 0.26562,0.39063 0.42187,0.875 0.125,0.39063 0.17188,0.84375 0.0625,0.4375 0.0625,0.89063 z m 5.6643,-4.84375 v 1.46875 h 3.29688 v 8.45312 q 0,0.70313 -0.1875,1.17188 -0.17188,0.48437 -0.48438,0.78125 -0.3125,0.29687 -0.73437,0.40625 -0.40625,0.125 -0.89063,0.125 -0.125,0 -0.34375,0 -0.21875,0 -0.45312,-0.0312 -0.25,0 -0.48438,-0.0312 -0.23437,-0.0156 -0.39062,-0.0469 l -0.125,1.39063 q 0.23437,0.0312 0.4375,0.0625 0.20312,0.0312 0.42187,0.0469 0.25,0.0312 0.51563,0.0312 0.26562,0.0156 0.54687,0.0156 0.90625,0 1.625,-0.26563 0.71875,-0.25 1.21875,-0.76562 0.48438,-0.48438 0.75,-1.21875 0.26563,-0.71875 0.26563,-1.67188 v -9.92187 z m 3.0625,-2.59375 q 0,0.40625 0.23438,0.6875 0.25,0.28125 0.76562,0.28125 0.5,0 0.75,-0.28125 0.26563,-0.28125 0.26563,-0.6875 0,-0.40625 -0.26563,-0.6875 -0.25,-0.29688 -0.75,-0.29688 -0.51562,0 -0.76562,0.29688 -0.23438,0.28125 -0.23438,0.6875 z m 11.35181,12.64062 q 1.4375,0 2.42188,-0.57812 0.98437,-0.57813 1.46875,-1.32813 l -1.03125,-0.79687 q -0.46875,0.59375 -1.17188,0.96875 -0.6875,0.35937 -1.59375,0.35937 -0.6875,0 -1.25,-0.25 -0.5625,-0.26562 -0.96875,-0.71875 -0.39062,-0.40625 -0.60937,-0.95312 -0.21875,-0.54688 -0.28125,-1.26563 v -0.0781 h 7.03125 v -0.75 q 0,-1.03125 -0.26563,-1.90625 -0.25,-0.89063 -0.78125,-1.54688 -0.53125,-0.64062 -1.32812,-1 -0.79688,-0.375 -1.85938,-0.375 -0.84375,0 -1.65625,0.34375 -0.79687,0.34375 -1.4375,0.98438 -0.625,0.65625 -1.01562,1.60937 -0.375,0.9375 -0.375,2.125 v 0.39063 q 0,1.03125 0.34375,1.90625 0.34375,0.875 0.96875,1.5 0.60937,0.64062 1.48437,1 0.875,0.35937 1.90625,0.35937 z m -0.21875,-8.84375 q 0.65625,0 1.125,0.23438 0.46875,0.23437 0.76563,0.625 0.3125,0.375 0.48437,0.90625 0.17188,0.51562 0.17188,0.98437 v 0.0781 h -5.29688 q 0.0937,-0.6875 0.34375,-1.20313 0.26563,-0.53125 0.625,-0.89062 0.35938,-0.35938 0.8125,-0.54688 0.45313,-0.1875 0.96875,-0.1875 z m 11.25806,7.46875 q -0.79688,0 -1.32813,-0.3125 -0.53125,-0.3125 -0.84375,-0.82812 -0.32812,-0.5 -0.46875,-1.125 -0.14062,-0.64063 -0.14062,-1.28125 v -0.39063 q 0,-0.625 0.14062,-1.25 0.14063,-0.64062 0.46875,-1.15625 0.32813,-0.5 0.85938,-0.8125 0.53125,-0.3125 1.3125,-0.3125 0.51562,0 0.95312,0.17188 0.4375,0.17187 0.76563,0.48437 0.3125,0.29688 0.5,0.6875 0.1875,0.39063 0.20312,0.84375 h 1.59375 q 0,-0.75 -0.3125,-1.40625 -0.29687,-0.65625 -0.82812,-1.14062 -0.53125,-0.46875 -1.26563,-0.73438 -0.73437,-0.28125 -1.60937,-0.28125 -1.10938,0 -1.95313,0.40625 -0.84375,0.39063 -1.39062,1.0625 -0.5625,0.6875 -0.85938,1.57813 -0.28125,0.89062 -0.28125,1.85937 v 0.39063 q 0,0.98437 0.28125,1.875 0.29688,0.875 0.85938,1.5625 0.54687,0.67187 1.39062,1.07812 0.84375,0.40625 1.95313,0.40625 0.78125,0 1.5,-0.26562 0.71875,-0.28125 1.28125,-0.73438 0.5625,-0.4375 0.89062,-1.03125 0.32813,-0.60937 0.34375,-1.26562 h -1.59375 q -0.0156,0.40625 -0.21875,0.76562 -0.20312,0.34375 -0.54687,0.60938 -0.32813,0.26562 -0.76563,0.40625 -0.4375,0.14062 -0.89062,0.14062 z m 10.99249,-11.0625 h -1.70312 v 2.39063 H 768.302 v 1.3125 h 2.57813 v 5.34375 q 0,0.92187 0.23437,1.5625 0.25,0.64062 0.67188,1.04687 0.42187,0.40625 0.98437,0.59375 0.57813,0.1875 1.23438,0.1875 0.39062,0 0.78125,-0.0469 0.40625,-0.0312 0.75,-0.10938 0.35937,-0.0625 0.65625,-0.15625 0.29687,-0.0937 0.51562,-0.21875 l -0.23437,-1.20312 q -0.15625,0.0469 -0.40625,0.0937 -0.23438,0.0469 -0.51563,0.0937 -0.28125,0.0469 -0.57812,0.0781 -0.28125,0.0312 -0.54688,0.0312 -0.375,0 -0.71875,-0.0937 -0.32812,-0.0937 -0.57812,-0.3125 -0.26563,-0.21875 -0.40625,-0.59375 -0.14063,-0.375 -0.14063,-0.95312 v -5.34375 h 3.75 v -1.3125 h -3.75 z m 7.46118,2.39063 v 1.46875 h 3.35938 v 6.9375 h -3.35938 v 1.45312 h 8.26563 v -1.45312 h -3.21875 v -8.40625 z m 3.14063,-2.57813 q 0,0.40625 0.25,0.6875 0.25,0.26563 0.76562,0.26563 0.5,0 0.75,-0.26563 0.25,-0.28125 0.25,-0.6875 0,-0.23437 -0.0781,-0.42187 -0.0625,-0.1875 -0.20313,-0.32813 -0.125,-0.10937 -0.3125,-0.17187 -0.17187,-0.0781 -0.40625,-0.0781 -0.25,0 -0.4375,0.0781 -0.17187,0.0625 -0.29687,0.17187 -0.14063,0.14063 -0.21875,0.34375 -0.0625,0.1875 -0.0625,0.40625 z m 11.16431,12.4375 h 1.28125 l 4.01562,-9.85937 h -1.71875 l -2.76562,7.4375 -0.15625,0.60937 -0.15625,-0.60937 -2.82813,-7.4375 h -1.73437 z m 12.17993,0.1875 q 1.4375,0 2.42187,-0.57812 0.98438,-0.57813 1.46875,-1.32813 l -1.03125,-0.79687 q -0.46875,0.59375 -1.17187,0.96875 -0.6875,0.35937 -1.59375,0.35937 -0.6875,0 -1.25,-0.25 -0.5625,-0.26562 -0.96875,-0.71875 -0.39063,-0.40625 -0.60938,-0.95312 -0.21875,-0.54688 -0.28125,-1.26563 v -0.0781 h 7.03125 v -0.75 q 0,-1.03125 -0.26562,-1.90625 -0.25,-0.89063 -0.78125,-1.54688 -0.53125,-0.64062 -1.32813,-1 -0.79687,-0.375 -1.85937,-0.375 -0.84375,0 -1.65625,0.34375 -0.79688,0.34375 -1.4375,0.98438 -0.625,0.65625 -1.01563,1.60937 -0.375,0.9375 -0.375,2.125 v 0.39063 q 0,1.03125 0.34375,1.90625 0.34375,0.875 0.96875,1.5 0.60938,0.64062 1.48438,1 0.875,0.35937 1.90625,0.35937 z m -0.21875,-8.84375 q 0.65625,0 1.125,0.23438 0.46875,0.23437 0.76562,0.625 0.3125,0.375 0.48438,0.90625 0.17187,0.51562 0.17187,0.98437 v 0.0781 h -5.29687 q 0.0937,-0.6875 0.34375,-1.20313 0.26562,-0.53125 0.625,-0.89062 0.35937,-0.35938 0.8125,-0.54688 0.45312,-0.1875 0.96875,-0.1875 z m 20.76617,8.65625 h 1.70313 v -8.54687 h 3.79687 v -1.3125 h -3.79687 v -0.6875 q 0,-0.625 0.15625,-1.07813 0.15625,-0.46875 0.46875,-0.76562 0.29687,-0.28125 0.73437,-0.42188 0.4375,-0.14062 1.01563,-0.14062 0.5625,0 1.0625,0.0937 0.5,0.0937 0.875,0.21875 l 0.1875,-1.39063 q -0.23438,-0.0625 -0.46875,-0.10937 -0.21875,-0.0469 -0.45313,-0.0937 -0.34375,-0.0625 -0.70312,-0.10938 -0.34375,-0.0469 -0.70313,-0.0469 -0.875,0 -1.59375,0.25 -0.70312,0.25 -1.20312,0.73437 -0.51563,0.48438 -0.79688,1.20313 -0.28125,0.70312 -0.28125,1.65625 v 0.6875 h -2.70312 v 1.3125 h 2.70312 z m 15.17993,0 h 1.53125 v -9.85937 h -1.6875 v 7.07812 q -0.14062,0.3125 -0.34375,0.57813 -0.20312,0.26562 -0.48437,0.46875 -0.32813,0.23437 -0.78125,0.375 -0.4375,0.125 -1,0.125 -0.48438,0 -0.85938,-0.125 -0.35937,-0.14063 -0.625,-0.45313 -0.25,-0.3125 -0.375,-0.82812 -0.125,-0.53125 -0.125,-1.34375 v -5.875 h -1.6875 v 5.85937 q 0,1.10938 0.23438,1.89063 0.25,0.78125 0.6875,1.29687 0.45312,0.51563 1.07812,0.76563 0.625,0.23437 1.40625,0.23437 0.96875,0 1.70313,-0.40625 0.73437,-0.40625 1.23437,-1.14062 z m 4.69556,0 h 1.6875 v -7.0625 q 0.17187,-0.32812 0.40625,-0.59375 0.23437,-0.26562 0.51562,-0.45312 0.32813,-0.23438 0.71875,-0.35938 0.40625,-0.14062 0.875,-0.14062 0.54688,0 0.95313,0.125 0.42187,0.125 0.70312,0.40625 0.28125,0.29687 0.42188,0.75 0.15625,0.45312 0.15625,1.10937 v 6.21875 h 1.6875 v -6.26562 q 0,-0.96875 -0.25,-1.6875 -0.23438,-0.71875 -0.6875,-1.1875 -0.4375,-0.45313 -1.07813,-0.67188 -0.625,-0.21875 -1.40625,-0.21875 -0.5625,0 -1.07812,0.17188 -0.51563,0.15625 -0.95313,0.4375 -0.29687,0.1875 -0.5625,0.45312 -0.25,0.26563 -0.46875,0.5625 l -0.125,-1.45312 h -1.51562 z m 15.39874,-1.1875 q -0.79687,0 -1.32812,-0.3125 -0.53125,-0.3125 -0.84375,-0.82812 -0.32813,-0.5 -0.46875,-1.125 -0.14063,-0.64063 -0.14063,-1.28125 v -0.39063 q 0,-0.625 0.14063,-1.25 0.14062,-0.64062 0.46875,-1.15625 0.32812,-0.5 0.85937,-0.8125 0.53125,-0.3125 1.3125,-0.3125 0.51563,0 0.95313,0.17188 0.4375,0.17187 0.76562,0.48437 0.3125,0.29688 0.5,0.6875 0.1875,0.39063 0.20313,0.84375 h 1.59375 q 0,-0.75 -0.3125,-1.40625 -0.29688,-0.65625 -0.82813,-1.14062 -0.53125,-0.46875 -1.26562,-0.73438 -0.73438,-0.28125 -1.60938,-0.28125 -1.10937,0 -1.95312,0.40625 -0.84375,0.39063 -1.39063,1.0625 -0.5625,0.6875 -0.85937,1.57813 -0.28125,0.89062 -0.28125,1.85937 v 0.39063 q 0,0.98437 0.28125,1.875 0.29687,0.875 0.85937,1.5625 0.54688,0.67187 1.39063,1.07812 0.84375,0.40625 1.95312,0.40625 0.78125,0 1.5,-0.26562 0.71875,-0.28125 1.28125,-0.73438 0.5625,-0.4375 0.89063,-1.03125 0.32812,-0.60937 0.34375,-1.26562 h -1.59375 q -0.0156,0.40625 -0.21875,0.76562 -0.20313,0.34375 -0.54688,0.60938 -0.32812,0.26562 -0.76562,0.40625 -0.4375,0.14062 -0.89063,0.14062 z m 10.99243,-11.0625 h -1.70312 v 2.39063 h -2.57813 v 1.3125 h 2.57813 v 5.34375 q 0,0.92187 0.23437,1.5625 0.25,0.64062 0.67188,1.04687 0.42187,0.40625 0.98437,0.59375 0.57813,0.1875 1.23438,0.1875 0.39062,0 0.78125,-0.0469 0.40625,-0.0312 0.75,-0.10938 0.35937,-0.0625 0.65625,-0.15625 0.29687,-0.0937 0.51562,-0.21875 l -0.23437,-1.20312 q -0.15625,0.0469 -0.40625,0.0937 -0.23438,0.0469 -0.51563,0.0937 -0.28125,0.0469 -0.57812,0.0781 -0.28125,0.0312 -0.54688,0.0312 -0.375,0 -0.71875,-0.0937 -0.32812,-0.0937 -0.57812,-0.3125 -0.26563,-0.21875 -0.40625,-0.59375 -0.14063,-0.375 -0.14063,-0.95312 v -5.34375 h 3.75 v -1.3125 h -3.75 z m 7.46119,2.39063 v 1.46875 h 3.35937 v 6.9375 h -3.35937 v 1.45312 h 8.26562 v -1.45312 h -3.21875 v -8.40625 z m 3.14062,-2.57813 q 0,0.40625 0.25,0.6875 0.25,0.26563 0.76563,0.26563 0.5,0 0.75,-0.26563 0.25,-0.28125 0.25,-0.6875 0,-0.23437 -0.0781,-0.42187 -0.0625,-0.1875 -0.20312,-0.32813 -0.125,-0.10937 -0.3125,-0.17187 -0.17188,-0.0781 -0.40625,-0.0781 -0.25,0 -0.4375,0.0781 -0.17188,0.0625 -0.29688,0.17187 -0.14062,0.14063 -0.21875,0.34375 -0.0625,0.1875 -0.0625,0.40625 z m 7.32056,7.42188 v 0.20312 q 0,1.0625 0.3125,1.96875 0.3125,0.90625 0.89062,1.59375 0.57813,0.67188 1.40625,1.0625 0.84375,0.375 1.89063,0.375 1.03125,0 1.85937,-0.375 0.82813,-0.39062 1.40625,-1.0625 0.57813,-0.6875 0.89063,-1.59375 0.3125,-0.90625 0.3125,-1.96875 v -0.20312 q 0,-1.0625 -0.3125,-1.98438 -0.3125,-0.92187 -0.89063,-1.59375 -0.57812,-0.67187 -1.42187,-1.04687 -0.82813,-0.39063 -1.875,-0.39063 -1.03125,0 -1.85938,0.39063 -0.82812,0.375 -1.40625,1.04687 -0.57812,0.67188 -0.89062,1.59375 -0.3125,0.92188 -0.3125,1.98438 z m 1.6875,0.20312 v -0.20312 q 0,-0.71875 0.17187,-1.375 0.17188,-0.67188 0.53125,-1.17188 0.34375,-0.5 0.85938,-0.79687 0.51562,-0.29688 1.21875,-0.29688 0.70312,0 1.21875,0.29688 0.53125,0.29687 0.89062,0.79687 0.34375,0.5 0.51563,1.17188 0.1875,0.65625 0.1875,1.375 v 0.20312 q 0,0.71875 -0.17188,1.39063 -0.17187,0.65625 -0.51562,1.15625 -0.35938,0.5 -0.89063,0.79687 -0.51562,0.28125 -1.20312,0.28125 -0.70313,0 -1.23438,-0.28125 -0.53125,-0.29687 -0.875,-0.79687 -0.35937,-0.5 -0.53125,-1.15625 -0.17187,-0.67188 -0.17187,-1.39063 z m 9.97687,4.8125 h 1.6875 v -7.0625 q 0.17187,-0.32812 0.40625,-0.59375 0.23437,-0.26562 0.51562,-0.45312 0.32813,-0.23438 0.71875,-0.35938 0.40625,-0.14062 0.875,-0.14062 0.54688,0 0.95313,0.125 0.42187,0.125 0.70312,0.40625 0.28125,0.29687 0.42188,0.75 0.15625,0.45312 0.15625,1.10937 v 6.21875 h 1.6875 v -6.26562 q 0,-0.96875 -0.25,-1.6875 -0.23438,-0.71875 -0.6875,-1.1875 -0.4375,-0.45313 -1.07813,-0.67188 -0.625,-0.21875 -1.40625,-0.21875 -0.5625,0 -1.07812,0.17188 -0.51563,0.15625 -0.95313,0.4375 -0.29687,0.1875 -0.5625,0.45312 -0.25,0.26563 -0.46875,0.5625 l -0.125,-1.45312 h -1.51562 z"
     id="path61" />
  <path
     inkscape:connector-curvature="0"
     style="fill:#000000;fill-opacity:0;fill-rule:evenodd"
     d="m 195.20472,67.26774 c 9.71654,0 14.5748,0.0158 19.43306,0.0315 4.85828,0.0158 9.71654,0.0315 19.43307,0.0315"
     id="path63" />
  <path
     inkscape:connector-curvature="0"
     style="fill-rule:evenodd;stroke:#616161;stroke-width:2;stroke-linecap:butt;stroke-linejoin:round"
     d="m 202.78472,67.27201 3.95839,0.006 c 3.03642,0.006 5.46556,0.0138 7.89468,0.0217 l 7.43308,0.0204"
     id="path65" />
  <path
     inkscape:connector-curvature="0"
     style="fill:#616161;fill-rule:nonzero;stroke:#616161;stroke-width:2;stroke-linecap:butt"
     d="m 196.20472,67.26829 c 0.001,-1.81702 1.47484,-3.28915 3.29185,-3.28812 1.81702,10e-4 3.28917,1.47483 3.28815,3.29184 -0.001,1.81702 -1.47485,3.28919 -3.29187,3.28815 -1.81701,-10e-4 -3.28917,-1.47485 -3.28813,-3.29187 z"
     id="path67" />
  <path
     inkscape:connector-curvature="0"
     style="fill:#616161;fill-rule:evenodd;stroke:#616161;stroke-width:2;stroke-linecap:butt"
     d="m 222.06781,70.62308 9.07925,-3.29507 -9.07313,-3.31186 z"
     id="path69" />
  <path
     inkscape:connector-curvature="0"
     style="fill:#000000;fill-opacity:0;fill-rule:evenodd"
     d="m 413.81892,67.26798 c 9.71457,0 14.57089,0.0158 19.42917,0.0315 4.85828,0.0157 9.71847,0.0315 19.43695,0.0315"
     id="path71" />
  <path
     inkscape:connector-curvature="0"
     style="fill-rule:evenodd;stroke:#616161;stroke-width:2;stroke-linecap:butt;stroke-linejoin:round"
     d="m 421.39889,67.27228 3.95572,0.006 c 3.03567,0.006 5.46432,0.0138 7.89346,0.0217 l 7.43695,0.0204"
     id="path73" />
  <path
     inkscape:connector-curvature="0"
     style="fill:#616161;fill-rule:nonzero;stroke:#616161;stroke-width:2;stroke-linecap:butt"
     d="m 414.81892,67.26856 c 0.001,-1.81702 1.47482,-3.28915 3.29184,-3.28815 1.81702,10e-4 3.28918,1.47486 3.28815,3.29187 -10e-4,1.81702 -1.47486,3.28916 -3.29187,3.28815 -1.81702,-10e-4 -3.28916,-1.47485 -3.28812,-3.29187 z"
     id="path75" />
  <path
     inkscape:connector-curvature="0"
     style="fill:#616161;fill-rule:evenodd;stroke:#616161;stroke-width:2;stroke-linecap:butt"
     d="m 440.68198,70.62336 9.07925,-3.29507 -9.07312,-3.31186 z"
     id="path77" />
  <path
     inkscape:connector-curvature="0"
     style="fill:#000000;fill-opacity:0;fill-rule:evenodd"
     d="m 657.55908,67.26798 c 9.71454,0 14.57086,0.0158 19.42914,0.0315 4.85827,0.0157 9.7185,0.0315 19.43695,0.0315"
     id="path79" />
  <path
     inkscape:connector-curvature="0"
     style="fill-rule:evenodd;stroke:#616161;stroke-width:2;stroke-linecap:butt;stroke-linejoin:round"
     d="m 665.13902,67.27228 3.95575,0.006 c 3.03564,0.006 5.46436,0.0138 7.89349,0.0217 l 7.43689,0.0204"
     id="path81" />
  <path
     inkscape:connector-curvature="0"
     style="fill:#616161;fill-rule:nonzero;stroke:#616161;stroke-width:2;stroke-linecap:butt"
     d="m 658.55908,67.26856 c 9.8e-4,-1.81702 1.47479,-3.28915 3.29181,-3.28815 1.81702,10e-4 3.28918,1.47486 3.28815,3.29187 -10e-4,1.81702 -1.47486,3.28916 -3.29187,3.28815 -1.81702,-10e-4 -3.28913,-1.47485 -3.28809,-3.29187 z"
     id="path83" />
  <path
     inkscape:connector-curvature="0"
     style="fill:#616161;fill-rule:evenodd;stroke:#616161;stroke-width:2;stroke-linecap:butt"
     d="m 684.42212,70.62336 9.07929,-3.29507 -9.07312,-3.31186 z"
     id="path85" />
</svg>
